<?xml version="1.0" encoding="UTF-8" standalone="no"?>
<svg
   xmlns:dc="http://purl.org/dc/elements/1.1/"
   xmlns:cc="http://creativecommons.org/ns#"
   xmlns:rdf="http://www.w3.org/1999/02/22-rdf-syntax-ns#"
   xmlns:svg="http://www.w3.org/2000/svg"
   xmlns="http://www.w3.org/2000/svg"
   xmlns:xlink="http://www.w3.org/1999/xlink"
   height="48"
   width="48"
   version="1.1"
   viewBox="0 0 48 48"
   id="svg2">
  <g
     transform="translate(0,1.0000012)"
     id="g4342"
     style="fill:#000000;fill-opacity:1;stroke:none;opacity:0.15">
    <ellipse
       ry="4.2971239"
       rx="4.2660995"
       transform="matrix(-0.50544451,-0.86285911,0.86913471,-0.49457542,0,0)"
       id="ellipse4344"
       cx="-56.589344"
       cy="12.291623"
       style="fill:#000000;fill-opacity:1;stroke:none" />
    <ellipse
       ry="4.2505026"
       rx="4.2880049"
       cy="24"
       cx="6.3590064"
       id="ellipse4346"
       style="fill:#000000;fill-opacity:1;stroke:none" />
    <ellipse
       ry="4.2971239"
       rx="4.2660995"
       transform="matrix(-0.50544451,0.86285911,-0.86913471,-0.49457542,0,0)"
       id="ellipse4348"
       cx="-14.867594"
       cy="-36.554871"
       style="fill:#000000;fill-opacity:1;stroke:none" />
    <path
       id="path4350"
       d="m 20,7.4456101 c 4.070843,-1.9789176 8.813246,-2.4756899 13.306692,-1.2459475 0.280213,1.7101159 1.309467,3.2862368 2.950981,4.2203304 1.641515,0.934093 3.541028,1.024568 5.183759,0.40869 C 44.768689,14.04926 46.703392,18.345597 47,22.809784 L 40.849334,22.8983 C 40.494671,19.010308 38.2935,15.34723 34.601928,13.246564 30.910355,11.145899 26.591141,11.098595 22.997556,12.739862 Z"
       style="fill:#000000;fill-opacity:1;stroke:none" />
    <path
       d="M 17.864838,39.364169 C 14.112088,36.878901 11.320369,33.079338 10.160819,28.629019 11.515581,27.534781 12.380887,25.868186 12.380887,24 c 0,-1.868186 -0.865306,-3.534781 -2.220068,-4.629019 1.15955,-4.450319 3.951269,-8.249882 7.704019,-10.7351504 l 3.135163,5.2057344 C 17.779515,16.08829 15.673528,19.798671 15.673528,24 c 0,4.201329 2.105987,7.91171 5.326473,10.158435 z"
       id="path4352"
       style="fill:#000000;fill-opacity:1;stroke:none" />
    <path
       id="path4354"
       d="m 47,25.190216 c -0.296608,4.464187 -2.231311,8.760524 -5.558568,11.981101 -1.642731,-0.615878 -3.542244,-0.525403 -5.183759,0.40869 -1.641514,0.934094 -2.670768,2.510214 -2.950981,4.22033 C 28.813246,43.03008 24.070843,42.533307 20,40.55439 l 2.997556,-5.294252 c 3.593585,1.641267 7.912799,1.593963 11.604372,-0.506702 3.691572,-2.100666 5.892743,-5.763744 6.247406,-9.651736 z"
       style="fill:#000000;fill-opacity:1;stroke:none" />
  </g>
  <g
     style="stroke:none;fill:url(#linearGradient4340);fill-opacity:1"
     id="g4310">
    <ellipse
       style="fill:url(#linearGradient4340);fill-opacity:1;stroke:none"
       cy="12.291623"
       cx="-56.589344"
       id="circle4161"
       transform="matrix(-0.50544451,-0.86285911,0.86913471,-0.49457542,0,0)"
       rx="4.2660995"
       ry="4.2971239" />
    <ellipse
       style="fill:url(#linearGradient4340);fill-opacity:1;stroke:none"
       id="circle7"
       cx="6.3590064"
       cy="24"
       rx="4.2880049"
       ry="4.2505026" />
    <ellipse
       style="fill:url(#linearGradient4340);fill-opacity:1;stroke:none"
       cy="-36.554871"
       cx="-14.867594"
       id="circle4167"
       transform="matrix(-0.50544451,0.86285911,-0.86913471,-0.49457542,0,0)"
       rx="4.2660995"
       ry="4.2971239" />
    <path
       style="fill:url(#linearGradient4340);fill-opacity:1;stroke:none"
       d="m 20,7.4456101 c 4.070843,-1.9789176 8.813246,-2.4756899 13.306692,-1.2459475 0.280213,1.7101159 1.309467,3.2862368 2.950981,4.2203304 1.641515,0.934093 3.541028,1.024568 5.183759,0.40869 C 44.768689,14.04926 46.703392,18.345597 47,22.809784 L 40.849334,22.8983 C 40.494671,19.010308 38.2935,15.34723 34.601928,13.246564 30.910355,11.145899 26.591141,11.098595 22.997556,12.739862 Z"
       id="path4169" />
    <path
       style="fill:url(#linearGradient4340);fill-opacity:1;stroke:none"
       id="path9"
       d="M 17.864838,39.364169 C 14.112088,36.878901 11.320369,33.079338 10.160819,28.629019 11.515581,27.534781 12.380887,25.868186 12.380887,24 c 0,-1.868186 -0.865306,-3.534781 -2.220068,-4.629019 1.15955,-4.450319 3.951269,-8.249882 7.704019,-10.7351504 l 3.135163,5.2057344 C 17.779515,16.08829 15.673528,19.798671 15.673528,24 c 0,4.201329 2.105987,7.91171 5.326473,10.158435 z" />
    <path
       style="fill:url(#linearGradient4340);fill-opacity:1;stroke:none"
       d="m 47,25.190216 c -0.296608,4.464187 -2.231311,8.760524 -5.558568,11.981101 -1.642731,-0.615878 -3.542244,-0.525403 -5.183759,0.40869 -1.641514,0.934094 -2.670768,2.510214 -2.950981,4.22033 C 28.813246,43.03008 24.070843,42.533307 20,40.55439 l 2.997556,-5.294252 c 3.593585,1.641267 7.912799,1.593963 11.604372,-0.506702 3.691572,-2.100666 5.892743,-5.763744 6.247406,-9.651736 z"
       id="path4163" />
  </g>
  <defs
     id="defs4">
    <linearGradient
       id="linearGradient4334">
      <stop
         id="stop4336"
         offset="0"
         style="stop-color:#ff8b36;stop-opacity:1" />
      <stop
         id="stop4338"
         offset="1"
         style="stop-color:#fb4c29;stop-opacity:1" />
    </linearGradient>
    <linearGradient
       id="linearGradient4294">
      <stop
         id="stop4296"
         offset="0"
         style="stop-color:#ffffff;stop-opacity:1;" />
      <stop
         id="stop4298"
         offset="1"
         style="stop-color:#ffffff;stop-opacity:0;" />
    </linearGradient>
    <linearGradient
       gradientUnits="userSpaceOnUse"
       y2="46"
       x2="30"
       y1="2"
       x1="30"
       id="linearGradient4300"
       xlink:href="#linearGradient4294" />
    <linearGradient
       gradientUnits="userSpaceOnUse"
       y2="3"
       x2="20"
       y1="48"
       x1="20"
       id="linearGradient4340"
       xlink:href="#linearGradient4334" />
  </defs>
  <metadata
     id="metadata9999">
    <rdf:RDF>
      <cc:Work>
        <dc:format>image/svg+xml</dc:format>
        <dc:type
           rdf:resource="http://purl.org/dc/dcmitype/StillImage" />
        <dc:title></dc:title>
        <cc:license
           rdf:resource="http://creativecommons.org/licenses/by-sa/4.0/" />
        <dc:creator>
          <cc:Agent>
            <dc:title>Sixsixfive (sixsixfive.deviantart.com)</dc:title>
          </cc:Agent>
        </dc:creator>
        <dc:publisher>
          <cc:Agent>
            <dc:title>Sixsixfive (sixsixfive.deviantart.com)</dc:title>
          </cc:Agent>
        </dc:publisher>
        <dc:source>https://github.com/sixsixfive</dc:source>
        <dc:subject>
          <rdf:Bag>
            <rdf:li>ivy</rdf:li>
          </rdf:Bag>
        </dc:subject>
        <dc:contributor>
          <cc:Agent>
            <dc:title>ssf</dc:title>
          </cc:Agent>
        </dc:contributor>
        <dc:rights>
          <cc:Agent>
            <dc:title>Sixsixfive (sixisixfive.deviantart.com)</dc:title>
          </cc:Agent>
        </dc:rights>
        <dc:description>A simple icon theme published under CC-BY-SA_V4(http://creativecommons.org/licenses/by-sa/4.0)</dc:description>
        <dc:identifier>SSF</dc:identifier>
      </cc:Work>
    </rdf:RDF>
  </metadata>
  <!--Part of the Ivy icon them published under the CC-BY-SA_V4: http://creativecommons.org/licenses/by-sa/4.0 -->
  <path
     d="m 39.375,1.5117188 c -0.08971,-0.00197 -0.179908,-0.00232 -0.269531,0.00195 -1.268301,0.059163 -2.481363,0.7899703 -3.113281,1.8691406 -0.496539,0.8474313 -0.635527,1.8897632 -0.378907,2.8339844 0.25662,0.9442211 0.905201,1.7807144 1.767578,2.2714843 0.862553,0.4910634 1.927465,0.6294377 2.890625,0.375 C 41.234644,8.6088436 42.08379,7.9651006 42.580078,7.1171875 43.075932,6.2697028 43.213953,5.2290014 42.957031,4.2851562 42.70011,3.3413111 42.051658,2.5041598 41.189453,2.0136719 a 0.51099665,0.51099665 0 0 1 -0.002,0 C 40.638639,1.7006264 40.009855,1.5270033 39.375,1.5117188 Z m -11.175781,4.53125 C 25.617669,6.0604293 23.08442,6.6671545 20.744141,7.71875 l 2.496093,4.410156 c 3.646674,-1.508749 7.924922,-1.425009 11.613282,0.673828 3.685645,2.097293 5.905423,5.708726 6.40625,9.578125 l 5.144531,-0.07422 C 46.009208,18.250136 44.243608,14.375093 41.259766,11.398438 39.56491,11.927533 37.666049,11.808001 36.005859,10.863281 34.34571,9.9185828 33.286204,8.3529056 32.902344,6.6367188 31.348896,6.2367597 29.769494,6.0323481 28.199219,6.0429688 Z M 17.726562,9.3984375 C 14.375218,11.763898 11.866745,15.209085 10.748047,19.242188 12.05078,20.426 12.892578,22.109954 12.892578,24 c 0,1.890046 -0.841798,3.574 -2.144531,4.757812 1.118698,4.033103 3.627171,7.47829 6.978515,9.84375 L 20.34375,34.255859 C 17.216028,31.895622 15.162109,28.197974 15.162109,24 c 0,-4.197974 2.053919,-7.895622 5.181641,-10.255859 L 17.726562,9.3984375 Z M 6.359375,20.261719 C 5.3692924,20.261477 4.3845308,20.664804 3.6855469,21.357422 2.986563,22.05004 2.5821479,23.022087 2.5820312,24 c 1.167e-4,0.977913 0.4045318,1.94996 1.1035157,2.642578 0.6989839,0.692618 1.6837455,1.095945 2.6738281,1.095703 C 7.3491705,27.738076 8.3326285,27.335152 9.03125,26.642578 9.7298715,25.950004 10.134649,24.97763 10.134766,24 10.134649,23.02237 9.7298715,22.049996 9.03125,21.357422 8.3326285,20.664848 7.3491705,20.261924 6.359375,20.261719 Z m 34.900391,5.357422 c -0.500827,3.8694 -2.720605,7.480832 -6.40625,9.578125 -3.68836,2.098837 -7.966608,2.182577 -11.613282,0.673828 l -2.503906,4.419922 c 3.765411,1.693046 8.058253,2.12315 12.167969,1.064453 0.385424,-1.713082 1.443949,-3.275495 3.101562,-4.21875 1.660192,-0.94472 3.559051,-1.064252 5.253907,-0.535157 2.983842,-2.976655 4.749442,-6.851698 5.144531,-10.908203 l -5.144531,-0.07422 z m -2.064454,13.392578 c -0.634705,0.01476 -1.265425,0.187551 -1.814453,0.5 -0.862377,0.49077 -1.510958,1.327263 -1.767578,2.271484 -0.25662,0.944221 -0.117632,1.986553 0.378907,2.833985 0.496578,0.847185 1.345855,1.490049 2.308593,1.74414 0.962738,0.254091 2.026469,0.11568 2.888672,-0.375 0.862206,-0.490488 1.510657,-1.327639 1.767578,-2.271484 0.256922,-0.943846 0.118901,-1.984547 -0.376953,-2.832032 -0.676777,-1.156036 -2.025054,-1.902971 -3.384766,-1.871093 z"
     id="path4290"
     style="opacity:0.5;fill:none;fill-opacity:1;stroke:#000000" />
  <path
     style="opacity:0.6;fill:none;fill-opacity:1;stroke:url(#linearGradient4300)"
     id="path4292"
     d="m 39.349609,2.5332031 c -0.06469,-0.00134 -0.130689,-0.00113 -0.195312,0.00195 -0.932802,0.043513 -1.82275,0.582223 -2.28125,1.3652344 -0.720548,1.2297435 -0.249298,2.980476 1.013672,3.6992188 1.262403,0.7187038 3.089398,0.2306242 3.810547,-0.9980469 0.719547,-1.2298085 0.249048,-2.9808872 -1.013672,-3.6992187 a 1.5332654,1.5332654 0 0 1 -0.002,0 C 40.280832,2.6737407 39.819156,2.5450532 39.353516,2.5332031 l -0.0039,0 z m -11.144531,4.53125 c -2.057846,0.013918 -4.060029,0.4925162 -5.974609,1.2070313 l 1.490234,2.6347656 c 3.732682,-1.2710508 7.954648,-1.0885572 11.638672,1.007812 3.675462,2.091499 5.957536,5.607178 6.716797,9.433594 l 3.138672,-0.04492 C 44.671815,18.017514 43.180454,14.92108 40.806641,12.433594 39.046119,12.796799 37.176068,12.705708 35.5,11.751953 33.841603,10.808252 32.828664,9.2684897 32.255859,7.59375 30.91423,7.2811882 29.557968,7.0553027 28.205078,7.0644531 Z M 17.453125,10.921875 c -2.611529,2.107796 -4.581564,4.930832 -5.578125,8.199219 1.187538,1.325878 2.039062,2.970437 2.039062,4.878906 0,1.908469 -0.851524,3.553028 -2.039062,4.878906 0.996561,3.268387 2.966596,6.091423 5.578125,8.199219 l 1.582031,-2.628906 C 16.078775,31.893015 14.140625,28.192277 14.140625,24 c 0,-4.192277 1.93815,-7.893015 4.894531,-10.449219 L 17.453125,10.921875 Z M 6.359375,21.283203 C 4.9097774,21.282849 3.6036845,22.584144 3.6035156,24 3.6036845,25.415856 4.9097774,26.717151 6.359375,26.716797 7.8085522,26.716497 9.1131124,25.415445 9.1132812,24 9.1131124,22.584555 7.8085522,21.283503 6.359375,21.283203 Z m 35.716797,5.369141 c -0.759261,3.826417 -3.041335,7.342095 -6.716797,9.433594 -3.684024,2.096369 -7.90599,2.278863 -11.638672,1.007812 l -1.509765,2.667969 c 3.170082,1.184739 6.649983,1.462071 10.03125,0.677734 0.568485,-1.688712 1.588145,-3.241292 3.257812,-4.191406 1.676069,-0.953754 3.546119,-1.044846 5.306641,-0.681641 2.373813,-2.487486 3.865174,-5.58392 4.408203,-8.86914 l -3.138672,-0.04492 z M 39.21875,40.033203 c -0.466823,0.01086 -0.93,0.138394 -1.332031,0.367188 -1.26297,0.718742 -1.73422,2.469475 -1.013672,3.699218 0.720608,1.229391 2.547833,1.716658 3.810547,0.998047 1.262721,-0.718331 1.733219,-2.46941 1.013672,-3.699218 -0.491523,-0.837441 -1.479404,-1.388659 -2.478516,-1.365235 z" />
</svg>
