<?xml version="1.0" encoding="UTF-8" standalone="no"?>
<svg
   xmlns:dc="http://purl.org/dc/elements/1.1/"
   xmlns:cc="http://creativecommons.org/ns#"
   xmlns:rdf="http://www.w3.org/1999/02/22-rdf-syntax-ns#"
   xmlns:svg="http://www.w3.org/2000/svg"
   xmlns="http://www.w3.org/2000/svg"
   version="1.1"
   id="svg2"
   viewBox="0 0 30 30"
   height="30"
   width="30">
  <defs
     id="defs4">
    <style
       id="current-color-scheme"
       type="text/css">
      .ColorScheme-Text {
        color:#31363b;
        stop-color:#31363b;
      }
      .ColorScheme-Background {
        color:#eff0f1;
        stop-color:#eff0f1;
      }
      .ColorScheme-Highlight {
        color:#3daee9;
        stop-color:#3daee9;
      }
      .ColorScheme-ViewText {
        color:#31363b;
        stop-color:#31363b;
      }
      .ColorScheme-ViewBackground {
        color:#fcfcfc;
        stop-color:#fcfcfc;
      }
      .ColorScheme-ViewHover {
        color:#93cee9;
        stop-color:#93cee9;
      }
      .ColorScheme-ViewFocus{
        color:#3daee9;
        stop-color:#3daee9;
      }
      .ColorScheme-ButtonText {
        color:#31363b;
        stop-color:#31363b;
      }
      .ColorScheme-ButtonBackground {
        color:#eff0f1;
        stop-color:#eff0f1;
      }
      .ColorScheme-ButtonHover {
        color:#93cee9;
        stop-color:#93cee9;
      }
      .ColorScheme-ButtonFocus{
        color:#3daee9;
        stop-color:#3daee9;
      }
      </style>
  </defs>
  <metadata
     id="metadata7">
    <rdf:RDF>
      <cc:Work
         rdf:about="">
        <dc:format>image/svg+xml</dc:format>
        <dc:type
           rdf:resource="http://purl.org/dc/dcmitype/StillImage" />
        <dc:title></dc:title>
      </cc:Work>
    </rdf:RDF>
  </metadata>
  <g
     transform="translate(0,-904.36218)"
     id="layer1">
    <rect
       y="904.36218"
       x="0"
       height="4"
       width="4"
       id="hint-tile-center"
       style="opacity:1;fill:#ff2a2a;fill-opacity:1;stroke:none" />
    <rect
       y="904.36218"
       x="6"
       height="6"
       width="6"
       id="hint-bar-size"
       style="opacity:1;fill:#ff2a2a;fill-opacity:1;stroke:none" />
    <path
       id="bar-inactive-bottomright"
       transform="translate(0,904.36218)"
       d="m 17,15 0,3 c 1.661989,0 3,-1.338011 3,-3 l -3,0 z"
       style="opacity:1;fill:#bdc3c7;fill-opacity:1;stroke:none" />
    <path
       id="bar-inactive-right"
       transform="translate(0,904.36218)"
       d="m 17,12 0,2 3,0 0,-2 -3,0 z"
       style="opacity:1;fill:#bdc3c7;fill-opacity:1;stroke:none" />
    <path
       id="bar-inactive-topright"
       transform="translate(0,904.36218)"
       d="m 17,8 0,3 3,0 C 20,9.3380111 18.661989,8 17,8 Z"
       style="opacity:1;fill:#bdc3c7;fill-opacity:1;stroke:none" />
    <path
       id="bar-inactive-bottomleft"
       transform="translate(0,904.36218)"
       d="m 10,15 c 0,1.661989 1.338011,3 3,3 l 0,-3 -3,0 z"
       style="opacity:1;fill:#bdc3c7;fill-opacity:1;stroke:none" />
    <path
       id="bar-inactive-left"
       transform="translate(0,904.36218)"
       d="m 10,12 0,2 3,0 0,-2 -3,0 z"
       style="opacity:1;fill:#bdc3c7;fill-opacity:1;stroke:none" />
    <path
       id="bar-inactive-topleft"
       transform="translate(0,904.36218)"
       d="m 13,8 c -1.661989,0 -3,1.3380111 -3,3 l 3,0 0,-3 z"
       style="opacity:1;fill:#bdc3c7;fill-opacity:1;stroke:none" />
    <path
       id="bar-inactive-bottom"
       transform="translate(0,904.36218)"
       d="m 14,15 0,3 2,0 0,-3 -2,0 z"
       style="opacity:1;fill:#bdc3c7;fill-opacity:1;stroke:none" />
    <path
       transform="translate(0,904.36218)"
       id="bar-inactive-center"
       d="m 16,12 -2,0 0,2 2,0 0,-2 z"
       style="opacity:1;fill:#bdc3c7;fill-opacity:1;stroke:none" />
    <path
       id="bar-inactive-top"
       transform="translate(0,904.36218)"
       d="m 14,8 0,3 2,0 0,-3 -2,0 z"
       style="opacity:1;fill:#bdc3c7;fill-opacity:1;stroke:none" />
    <path
       class="ColorScheme-Highlight"
       style="opacity:1;fill:#ce99cd;fill-opacity:1;stroke:none"
       d="m 17,931.36218 0,3 c 1.661989,0 3,-1.33801 3,-3 l -3,0 z"
       id="bar-active-bottomright" />
    <path
       class="ColorScheme-Highlight"
       style="opacity:1;fill:#ce99cd;fill-opacity:1;stroke:none"
       d="m 17,928.36218 0,2 3,0 0,-2 -3,0 z"
       id="bar-active-right" />
    <path
       class="ColorScheme-Highlight"
       style="opacity:1;fill:#ce99cd;fill-opacity:1;stroke:none"
       d="m 17,924.36218 0,3 3,0 c 0,-1.66199 -1.338011,-3 -3,-3 z"
       id="bar-active-topright" />
    <path
       class="ColorScheme-Highlight"
       style="opacity:1;fill:#ce99cd;fill-opacity:1;stroke:none"
       d="m 10,931.36218 c 0,1.66199 1.338011,3 3,3 l 0,-3 -3,0 z"
       id="bar-active-bottomleft" />
    <path
       class="ColorScheme-Highlight"
       style="opacity:1;fill:#ce99cd;fill-opacity:1;stroke:none"
       d="m 10,928.36218 0,2 3,0 0,-2 -3,0 z"
       id="bar-active-left" />
    <path
       class="ColorScheme-Highlight"
       style="opacity:1;fill:#ce99cd;fill-opacity:1;stroke:none"
       d="m 13,924.36218 c -1.661989,0 -3,1.33801 -3,3 l 3,0 0,-3 z"
       id="bar-active-topleft" />
    <path
       class="ColorScheme-Highlight"
       style="opacity:1;fill:#ce99cd;fill-opacity:1;stroke:none"
       d="m 14,931.36218 0,3 2,0 0,-3 -2,0 z"
       id="bar-active-bottom" />
    <path
       class="ColorScheme-Highlight"
       style="opacity:1;fill:#ce99cd;fill-opacity:1;stroke:none"
       d="m 16,928.36218 -2,0 0,2 2,0 0,-2 z"
       id="bar-active-center" />
    <path
       class="ColorScheme-Highlight"
       style="opacity:1;fill:#ce99cd;fill-opacity:1;stroke:none"
       d="m 14,924.36218 0,3 2,0 0,-3 -2,0 z"
       id="bar-active-top" />
  </g>
</svg>
