<?xml version="1.0" encoding="UTF-8" standalone="no"?>
<svg
   xmlns:osb="http://www.openswatchbook.org/uri/2009/osb"
   xmlns:dc="http://purl.org/dc/elements/1.1/"
   xmlns:cc="http://creativecommons.org/ns#"
   xmlns:rdf="http://www.w3.org/1999/02/22-rdf-syntax-ns#"
   xmlns:svg="http://www.w3.org/2000/svg"
   xmlns="http://www.w3.org/2000/svg"
   version="1.0"
   id="svg2"
   height="128"
   width="128">
  <defs
     id="defs4">
    <linearGradient
       id="linearGradient6476"
       osb:paint="solid">
      <stop
         style="stop-color:#ffffff;stop-opacity:1;"
         offset="0"
         id="stop6478" />
    </linearGradient>
    <linearGradient
       id="linearGradient6476-1"
       osb:paint="solid">
      <stop
         style="stop-color:#ffffff;stop-opacity:1;"
         offset="0"
         id="stop6478-5" />
    </linearGradient>
    <style
       type="text/css"
       id="current-color-scheme">      .ColorScheme-ButtonText {
        color:#31363b;
      }
      .ColorScheme-Background{
        color:#eff0f1;
      }
      .ColorScheme-ViewText {
        color:#31363b;
      }
      .ColorScheme-ViewBackground{
        color:#fcfcfc;
      }
      .ColorScheme-ViewHover {
        color:#3daee9;
      }
      .ColorScheme-ViewFocus{
        color:#3daee9;
      }
      .ColorScheme-ButtonText {
        color:#31363b;
      }
      .ColorScheme-ButtonBackground{
        color:#eff0f1;
      }
      .ColorScheme-ButtonHover {
        color:#3daee9;
      }
      .ColorScheme-ButtonFocus{
        color:#3daee9;
      }</style>
  </defs>
  <metadata
     id="metadata7">
    <rdf:RDF>
      <cc:Work
         rdf:about="">
        <dc:format>image/svg+xml</dc:format>
        <dc:type
           rdf:resource="http://purl.org/dc/dcmitype/StillImage" />
        <dc:title></dc:title>
      </cc:Work>
    </rdf:RDF>
  </metadata>
  <g
     id="layer1">
    <rect
       style="opacity:0.65;fill:#023812;fill-opacity:1;fill-rule:nonzero;stroke:none;stroke-width:1;stroke-linecap:round;stroke-linejoin:round;stroke-miterlimit:4;stroke-dasharray:none;stroke-dashoffset:0;stroke-opacity:1"
       id="hint-tile-center"
       width="5.2207794"
       height="5.4025974"
       x="-10"
       y="0" />
    <g
       transform="matrix(0,-1,1,0,34.441941,137)"
       style="fill:#ffffff;fill-opacity:1"
       id="g4025" />
    <g
       transform="translate(1,-28)"
       id="vertical-centerindicator"
       style="opacity:0.7">
      <rect
         class="ColorScheme-Background"
         y="32"
         x="11"
         height="1"
         width="42"
         id="rect4223-8"
         style="opacity:1;fill:#000000;fill-opacity:1;fill-rule:nonzero;stroke:none" />
    </g>
    <g
       transform="translate(-4,17)"
       id="horizontal-centerindicator"
       style="opacity:0.7">
      <path
         class="ColorScheme-Background"
         id="rect4227-2"
         d="m -31,8 42,0 0,1 -42,0 z"
         style="opacity:1;fill:#000000;fill-opacity:1;fill-rule:nonzero;stroke:none"
         transform="matrix(0,-1,1,0,0,0)" />
    </g>
    <g
       id="south-maxslider"
       transform="matrix(0.73968509,0,0,0.73968509,161.52649,126.20676)"
       style="opacity:0.9">
      <rect
         ry="3"
         rx="3"
         transform="matrix(1.3519267,0,0,1.3519267,-107.51398,-181.4377)"
         y="57"
         x="8.000001"
         height="15"
         width="36"
         id="rect3850"
         style="opacity:0.01000001;fill:#fcfcfc;fill-opacity:0.00392157;stroke:none" />
      <rect
         style="fill:#000000;fill-opacity:1;stroke:none"
         id="rect5489"
         width="2.7038541"
         height="14.871195"
         x="-73.715813"
         y="-101.67403"
         class="ColorScheme-Background" />
      <path
         class="ColorScheme-Background"
         id="path3852"
         transform="matrix(1.3519267,0,0,1.3519267,-107.51398,-181.4377)"
         d="m 19.6875,59.15625 -0.75,0.6875 4.15625,4.15625 -12.093749,0 0,1 12.093749,0 -4.15625,4.15625 0.6875,0.6875 5,-5 L 25,64.5 24.625,64.15625 z"
         style="fill:#000000;fill-opacity:1;stroke:none" />
    </g>
    <g
       id="south-offsetslider"
       transform="matrix(0.73968509,0,0,0.73968509,129.5296,125.20016)"
       style="opacity:0.7">
      <rect
         transform="matrix(1.3519267,0,0,1.3519267,-37.218,-180.07685)"
         y="56"
         x="-40"
         height="19"
         width="28"
         id="rect3080"
         style="opacity:0.01000001;fill:#fcfcfc;fill-opacity:0.00392157;stroke:none" />
      <path
         class="ColorScheme-Background"
         id="path5500"
         d="m -72.265772,-88.18535 9.733014,-13.47975 -19.466029,0 z"
         style="fill:#000000;fill-opacity:1;stroke:none" />
    </g>
    <rect
       class="ColorScheme-ButtonText"
       y="66"
       x="71"
       height="12"
       width="10"
       id="south-center"
       style="opacity:0.6;fill:#ffffff;fill-opacity:1;stroke:none" />
    <rect
       style="opacity:0.9;fill:#b1aeaa;fill-opacity:1;stroke:none"
       id="south-bottom"
       width="10"
       height="1"
       x="71"
       y="78"
       class="ColorScheme-ButtonText" />
    <rect
       class="ColorScheme-ButtonText"
       y="65"
       x="71"
       height="1"
       width="10"
       id="south-top"
       style="opacity:0.9;fill:#b1aeaa;fill-opacity:1;stroke:none" />
    <rect
       class="ColorScheme-ButtonText"
       y="29"
       x="70"
       height="12"
       width="10"
       id="north-center"
       style="opacity:0.6;fill:#ffffff;fill-opacity:1;stroke:none" />
    <rect
       style="opacity:0.9;fill:#b1aeaa;fill-opacity:1;stroke:none"
       id="north-bottom"
       width="10"
       height="1"
       x="70"
       y="41"
       class="ColorScheme-ButtonText" />
    <rect
       class="ColorScheme-ButtonText"
       y="28"
       x="70"
       height="1"
       width="10"
       id="north-top"
       style="opacity:0.9;fill:#b1aeaa;fill-opacity:1;stroke:none" />
    <rect
       transform="matrix(0,1,-1,0,0,0)"
       class="ColorScheme-ButtonText"
       y="-18"
       x="113"
       height="12"
       width="10"
       id="west-center"
       style="opacity:0.6;fill:#ffffff;fill-opacity:1;stroke:none" />
    <rect
       transform="matrix(0,1,-1,0,0,0)"
       style="opacity:0.9;fill:#b1aeaa;fill-opacity:1;stroke:none"
       id="west-left"
       width="10"
       height="1"
       x="113"
       y="-6"
       class="ColorScheme-ButtonText" />
    <rect
       transform="matrix(0,1,-1,0,0,0)"
       class="ColorScheme-ButtonText"
       y="-19"
       x="113"
       height="1"
       width="10"
       id="west-right"
       style="opacity:0.9;fill:#b1aeaa;fill-opacity:1;stroke:none" />
    <rect
       transform="matrix(0,1,-1,0,0,0)"
       class="ColorScheme-ButtonText"
       y="-90"
       x="112"
       height="12"
       width="10"
       id="east-center"
       style="opacity:0.6;fill:#ffffff;fill-opacity:1;stroke:none" />
    <rect
       transform="matrix(0,1,-1,0,0,0)"
       style="opacity:0.9;fill:#b1aeaa;fill-opacity:1;stroke:none"
       id="east-left"
       width="10"
       height="1"
       x="112"
       y="-78"
       class="ColorScheme-ButtonText" />
    <rect
       transform="matrix(0,1,-1,0,0,0)"
       class="ColorScheme-ButtonText"
       y="-91"
       x="112"
       height="1"
       width="10"
       id="east-right"
       style="opacity:0.9;fill:#b1aeaa;fill-opacity:1;stroke:none" />
    <g
       transform="matrix(-0.73968509,0,0,0.73968509,54.473514,141.20676)"
       id="south-minslider"
       style="opacity:0.9">
      <rect
         style="opacity:0.01000001;fill:#fcfcfc;fill-opacity:0.00392157;stroke:none"
         id="rect3863"
         width="36"
         height="15"
         x="8.000001"
         y="57"
         transform="matrix(1.3519267,0,0,1.3519267,-107.51398,-181.4377)"
         rx="3"
         ry="3" />
      <rect
         class="ColorScheme-Background"
         y="-101.67403"
         x="-73.715813"
         height="14.871195"
         width="2.7038541"
         id="rect3865"
         style="fill:#000000;fill-opacity:1;stroke:none" />
      <path
         class="ColorScheme-Background"
         style="fill:#000000;fill-opacity:1;stroke:none"
         d="m 19.625001,59.15625 -0.6875,0.6875 4.15625,4.15625 -12.093749,0 0,1 12.093749,0 -4.15625,4.15625 0.6875,0.6875 5,-5 0.375,-0.34375 -0.375,-0.34375 z"
         transform="matrix(1.3519267,0,0,1.3519267,-107.51398,-181.4377)"
         id="path3867" />
    </g>
    <g
       transform="matrix(0.73968509,0,0,0.73968509,161.52649,84.70676)"
       id="north-maxslider"
       style="opacity:0.9">
      <rect
         style="opacity:0.01000001;fill:#fcfcfc;fill-opacity:0.00392157;stroke:none"
         id="rect3845"
         width="36"
         height="15"
         x="8.000001"
         y="57"
         transform="matrix(1.3519267,0,0,1.3519267,-107.51398,-181.4377)"
         rx="3"
         ry="3" />
      <rect
         class="ColorScheme-Background"
         y="-101.67403"
         x="-73.715813"
         height="14.871195"
         width="2.7038541"
         id="rect3847"
         style="fill:#000000;fill-opacity:1;stroke:none" />
      <path
         style="fill:#000000;fill-opacity:1;stroke:none"
         d="m 19.6875,59.15625 -0.75,0.6875 4.15625,4.15625 -12.093749,0 0,1 12.093749,0 -4.15625,4.15625 0.6875,0.6875 5,-5 L 25,64.5 24.625,64.15625 z"
         transform="matrix(1.3519267,0,0,1.3519267,-107.51398,-181.4377)"
         id="path3849"
         class="ColorScheme-Background" />
    </g>
    <g
       transform="matrix(0.73968509,0,0,-0.73968509,127.5296,-57.20016)"
       id="north-offsetslider"
       style="opacity:0.7">
      <rect
         style="opacity:0.01000001;fill:#fcfcfc;fill-opacity:0.00392157;stroke:none"
         id="rect3853"
         width="28"
         height="19"
         x="-40"
         y="56"
         transform="matrix(1.3519267,0,0,1.3519267,-37.218,-180.07685)" />
      <path
         style="fill:#000000;fill-opacity:1;stroke:none"
         d="m -72.265772,-88.18535 9.733014,-13.47975 -19.466029,0 z"
         id="path3855"
         class="ColorScheme-Background" />
    </g>
    <g
       id="north-minslider"
       transform="matrix(-0.73968509,0,0,0.73968509,54.473511,99.70676)"
       style="opacity:0.9">
      <rect
         ry="3"
         rx="3"
         transform="matrix(1.3519267,0,0,1.3519267,-107.51398,-181.4377)"
         y="57"
         x="8.000001"
         height="15"
         width="36"
         id="rect3859"
         style="opacity:0.01000001;fill:#fcfcfc;fill-opacity:0.00392157;stroke:none" />
      <rect
         style="fill:#000000;fill-opacity:1;stroke:none"
         id="rect3861"
         width="2.7038541"
         height="14.871195"
         x="-73.715813"
         y="-101.67403"
         class="ColorScheme-Background" />
      <path
         id="path3863"
         transform="matrix(1.3519267,0,0,1.3519267,-107.51398,-181.4377)"
         d="m 19.625001,59.15625 -0.6875,0.6875 4.15625,4.15625 -12.093749,0 0,1 12.093749,0 -4.15625,4.15625 0.6875,0.6875 5,-5 0.375,-0.34375 -0.375,-0.34375 z"
         style="fill:#000000;fill-opacity:1;stroke:none"
         class="ColorScheme-Background" />
    </g>
    <g
       id="east-maxslider"
       transform="matrix(0,0.73968509,-0.73968509,0,33.79324,153.52649)"
       style="opacity:0.9">
      <rect
         ry="3"
         rx="3"
         transform="matrix(1.3519267,0,0,1.3519267,-107.51398,-181.4377)"
         y="57"
         x="8.000001"
         height="15"
         width="36"
         id="rect3873"
         style="opacity:0.01000001;fill:#fcfcfc;fill-opacity:0.00392157;stroke:none" />
      <rect
         style="fill:#000000;fill-opacity:1;stroke:none"
         id="rect3875"
         width="2.7038541"
         height="14.871195"
         x="-73.715813"
         y="-101.67403"
         class="ColorScheme-Background" />
      <path
         class="ColorScheme-Background"
         id="path3877"
         transform="matrix(1.3519267,0,0,1.3519267,-107.51398,-181.4377)"
         d="m 19.6875,59.15625 -0.75,0.6875 4.15625,4.15625 -12.093749,0 0,1 12.093749,0 -4.15625,4.15625 0.6875,0.6875 5,-5 L 25,64.5 24.625,64.15625 z"
         style="fill:#000000;fill-opacity:1;stroke:none" />
    </g>
    <g
       id="east-offsetslider"
       transform="matrix(0,0.73968509,0.73968509,0,153.20016,149.5296)"
       style="opacity:0.7">
      <rect
         transform="matrix(1.3519267,0,0,1.3519267,-37.218,-180.07685)"
         y="56"
         x="-40"
         height="19"
         width="28"
         id="rect3881"
         style="opacity:0.01000001;fill:#fcfcfc;fill-opacity:0.00392157;stroke:none" />
      <path
         class="ColorScheme-Background"
         id="path3883"
         d="m -72.265772,-88.18535 9.733014,-13.47975 -19.466029,0 z"
         style="fill:#000000;fill-opacity:1;stroke:none" />
    </g>
    <g
       transform="matrix(0,-0.73968509,-0.73968509,0,49.79324,46.473514)"
       id="east-minslider"
       style="opacity:0.9">
      <rect
         style="opacity:0.01000001;fill:#fcfcfc;fill-opacity:0.00392157;stroke:none"
         id="rect3887"
         width="36"
         height="15"
         x="8.000001"
         y="57"
         transform="matrix(1.3519267,0,0,1.3519267,-107.51398,-181.4377)"
         rx="3"
         ry="3" />
      <rect
         class="ColorScheme-Background"
         y="-101.67403"
         x="-73.715813"
         height="14.871195"
         width="2.7038541"
         id="rect3889"
         style="fill:#000000;fill-opacity:1;stroke:none" />
      <path
         class="ColorScheme-Background"
         style="fill:#000000;fill-opacity:1;stroke:none"
         d="m 19.625001,59.15625 -0.6875,0.6875 4.15625,4.15625 -12.093749,0 0,1 12.093749,0 -4.15625,4.15625 0.6875,0.6875 5,-5 0.375,-0.34375 -0.375,-0.34375 z"
         transform="matrix(1.3519267,0,0,1.3519267,-107.51398,-181.4377)"
         id="path3891" />
    </g>
    <g
       transform="matrix(0,0.73968509,-0.73968509,0,-38.20676,153.52649)"
       id="west-maxslider"
       style="opacity:0.9">
      <rect
         style="opacity:0.01000001;fill:#fcfcfc;fill-opacity:0.00392157;stroke:none"
         id="rect3901"
         width="36"
         height="15"
         x="8.000001"
         y="57"
         transform="matrix(1.3519267,0,0,1.3519267,-107.51398,-181.4377)"
         rx="3"
         ry="3" />
      <rect
         class="ColorScheme-Background"
         y="-101.67403"
         x="-73.715813"
         height="14.871195"
         width="2.7038541"
         id="rect3903"
         style="fill:#000000;fill-opacity:1;stroke:none" />
      <path
         style="fill:#000000;fill-opacity:1;stroke:none"
         d="m 19.6875,59.15625 -0.75,0.6875 4.15625,4.15625 -12.093749,0 0,1 12.093749,0 -4.15625,4.15625 0.6875,0.6875 5,-5 L 25,64.5 24.625,64.15625 z"
         transform="matrix(1.3519267,0,0,1.3519267,-107.51398,-181.4377)"
         id="path3905"
         class="ColorScheme-Background" />
    </g>
    <g
       transform="matrix(0,0.73968509,-0.73968509,0,-57.20016,149.5296)"
       id="west-offsetslider"
       style="opacity:0.7">
      <rect
         style="opacity:0.01000001;fill:#fcfcfc;fill-opacity:0.00392157;stroke:none"
         id="rect3909"
         width="28"
         height="19"
         x="-40"
         y="56"
         transform="matrix(1.3519267,0,0,1.3519267,-37.218,-180.07685)" />
      <path
         style="fill:#000000;fill-opacity:1;stroke:none"
         d="m -72.265772,-88.18535 9.733014,-13.47975 -19.466029,0 z"
         id="path3911"
         class="ColorScheme-Background" />
    </g>
    <g
       id="west-minslider"
       transform="matrix(0,-0.73968509,-0.73968509,0,-18.70676,46.473514)"
       style="opacity:0.9">
      <rect
         ry="3"
         rx="3"
         transform="matrix(1.3519267,0,0,1.3519267,-107.51398,-181.4377)"
         y="57"
         x="8.000001"
         height="15"
         width="36"
         id="rect3915"
         style="opacity:0.01000001;fill:#fcfcfc;fill-opacity:0.00392157;stroke:none" />
      <rect
         style="fill:#000000;fill-opacity:1;stroke:none"
         id="rect3917"
         width="2.7038541"
         height="14.871195"
         x="-73.715813"
         y="-101.67403"
         class="ColorScheme-Background" />
      <path
         id="path3919"
         transform="matrix(1.3519267,0,0,1.3519267,-107.51398,-181.4377)"
         d="m 19.625001,59.15625 -0.6875,0.6875 4.15625,4.15625 -12.093749,0 0,1 12.093749,0 -4.15625,4.15625 0.6875,0.6875 5,-5 0.375,-0.34375 -0.375,-0.34375 z"
         style="fill:#000000;fill-opacity:1;stroke:none"
         class="ColorScheme-Background" />
    </g>
  </g>
</svg>
