<?xml version="1.0" encoding="UTF-8" standalone="no"?>
<svg
   xmlns:dc="http://purl.org/dc/elements/1.1/"
   xmlns:cc="http://creativecommons.org/ns#"
   xmlns:rdf="http://www.w3.org/1999/02/22-rdf-syntax-ns#"
   xmlns:svg="http://www.w3.org/2000/svg"
   xmlns="http://www.w3.org/2000/svg"
   width="44"
   height="44"
   viewBox="0 0 43.999998 43.999998"
   id="svg4235"
   version="1.1">
  <defs
     id="defs4237" />
  <g
     id="layer1"
     transform="matrix(1.9999998,0,0,1.9999998,0,-2060.7242)">
    <g
       id="g4417"
       transform="translate(-645,201.00088)">
      <g
         id="g4419"
         transform="matrix(1,0,0,-1,0,1632.7235)">
        <path
           style="opacity:1;fill:#fcfcfc;fill-opacity:1"
           d="m 11,50 a 9,9 0 0 0 -9,9 9,9 0 0 0 9,9 9,9 0 0 0 9,-9 9,9 0 0 0 -9,-9 z M 6.9921875,56.242188 A 0.750075,0.750075 0 0 1 7.53125,56.470703 L 11,59.939453 l 3.46875,-3.46875 a 0.75061184,0.75061184 0 0 1 1.0625,1.060547 l -4,4 a 0.750075,0.750075 0 0 1 -1.0625,0 l -4,-4 a 0.750075,0.750075 0 0 1 0.5234375,-1.289062 z"
           transform="matrix(1,0,0,-1,645,851.36132)"
           id="path4421" />
        <rect
           style="opacity:0;fill:#e270a2;fill-opacity:1;stroke-width:1.5;stroke-linecap:round;stroke-miterlimit:4;stroke-dasharray:none"
           id="rect4423"
           width="22"
           height="22"
           x="645"
           y="781.36218" />
      </g>
    </g>
  </g>
</svg>
