<?xml version="1.0" encoding="UTF-8" standalone="no"?>
<svg
   xmlns:dc="http://purl.org/dc/elements/1.1/"
   xmlns:cc="http://creativecommons.org/ns#"
   xmlns:rdf="http://www.w3.org/1999/02/22-rdf-syntax-ns#"
   xmlns:svg="http://www.w3.org/2000/svg"
   xmlns="http://www.w3.org/2000/svg"
   width="44"
   height="44"
   viewBox="0 0 43.999998 43.999998"
   id="svg4235"
   version="1.1">
  <defs
     id="defs4237" />
  <g
     id="layer1"
     transform="matrix(1.9999998,0,0,1.9999998,0,-2060.7242)">
    <g
       id="g4425"
       transform="translate(-645,275.99804)">
      <g
         id="g4427"
         transform="translate(0,-26.998024)">
        <path
           transform="translate(645,710.36308)"
           style="opacity:1;fill:#fcfcfc;fill-opacity:1"
           d="m 11,72.998047 a 9,9 0 0 0 -9,9 9,9 0 0 0 9,9 9,9 0 0 0 9,-9 9,9 0 0 0 -9,-9 z m 0.0098,6.25 a 0.750075,0.750075 0 0 1 0.521484,0.220703 l 4,4 a 0.75061184,0.75061184 0 1 1 -1.0625,1.060547 L 11,81.060547 7.53125,84.529297 A 0.750075,0.750075 0 0 1 6.9921875,84.757812 0.750075,0.750075 0 0 1 6.46875,83.46875 l 4,-4 a 0.750075,0.750075 0 0 1 0.541016,-0.220703 z"
           id="path4429" />
        <rect
           y="781.36218"
           x="645"
           height="22"
           width="22"
           id="rect4431"
           style="opacity:0;fill:#e270a2;fill-opacity:1;stroke-width:1.5;stroke-linecap:round;stroke-miterlimit:4;stroke-dasharray:none" />
      </g>
    </g>
  </g>
</svg>
