<?xml version="1.0" encoding="UTF-8" standalone="no"?>
<svg
   xmlns:dc="http://purl.org/dc/elements/1.1/"
   xmlns:cc="http://creativecommons.org/ns#"
   xmlns:rdf="http://www.w3.org/1999/02/22-rdf-syntax-ns#"
   xmlns:svg="http://www.w3.org/2000/svg"
   xmlns="http://www.w3.org/2000/svg"
   version="1.1"
   id="svg4235"
   viewBox="0 0 21.999999 21.999999"
   height="22"
   width="22">
  <defs
     id="defs4237" />
  <g
     transform="translate(0,-1030.3622)"
     id="layer1">
    <g
       transform="translate(-645,201.00088)"
       id="g4417">
      <g
         transform="matrix(1,0,0,-1,0,1632.7235)"
         id="g4419">
        <path
           id="path4421"
           transform="matrix(1,0,0,-1,645,851.36132)"
           d="m 11,50 a 9,9 0 0 0 -9,9 9,9 0 0 0 9,9 9,9 0 0 0 9,-9 9,9 0 0 0 -9,-9 z M 6.9921875,56.242188 A 0.750075,0.750075 0 0 1 7.53125,56.470703 L 11,59.939453 l 3.46875,-3.46875 a 0.75061184,0.75061184 0 0 1 1.0625,1.060547 l -4,4 a 0.750075,0.750075 0 0 1 -1.0625,0 l -4,-4 a 0.750075,0.750075 0 0 1 0.5234375,-1.289062 z"
           style="opacity:1;fill:#fcfcfc;fill-opacity:1" />
        <rect
           y="781.36218"
           x="645"
           height="22"
           width="22"
           id="rect4423"
           style="opacity:0;fill:#e270a2;fill-opacity:1;stroke-width:1.5;stroke-linecap:round;stroke-miterlimit:4;stroke-dasharray:none" />
      </g>
    </g>
  </g>
</svg>
