<?xml version="1.0" encoding="UTF-8" standalone="no"?>
<svg
   xmlns:dc="http://purl.org/dc/elements/1.1/"
   xmlns:cc="http://creativecommons.org/ns#"
   xmlns:rdf="http://www.w3.org/1999/02/22-rdf-syntax-ns#"
   xmlns:svg="http://www.w3.org/2000/svg"
   xmlns="http://www.w3.org/2000/svg"
   width="44"
   height="44"
   viewBox="0 0 43.999998 43.999998"
   id="svg4235"
   version="1.1">
  <defs
     id="defs4237" />
  <g
     id="layer1"
     transform="matrix(1.9999998,0,0,1.9999998,0,-2060.7242)">
    <g
       transform="translate(-645,249.00002)"
       id="g4144">
      <path
         id="path4203"
         d="m 656,783.36133 a 9,9 0 0 0 -9,9 9,9 0 0 0 9,9 9,9 0 0 0 9,-9 9,9 0 0 0 -9,-9 z m -4.00781,4.24414 a 0.750075,0.750075 0 0 1 0.53906,0.22656 l 3.46875,3.46875 3.46875,-3.46875 a 0.750075,0.750075 0 0 1 0.51563,-0.22656 0.750075,0.750075 0 0 1 0.54687,1.28711 l -3.46875,3.4707 3.46875,3.46875 a 0.75061184,0.75061184 0 0 1 -1.0625,1.06055 L 656,793.42383 l -3.46875,3.46875 a 0.75061184,0.75061184 0 0 1 -1.0625,-1.06055 l 3.46875,-3.46875 -3.46875,-3.4707 a 0.750075,0.750075 0 0 1 0.52344,-1.28711 z"
         style="opacity:1;fill:#da4453;fill-opacity:1" />
      <rect
         y="781.36218"
         x="645"
         height="22"
         width="22"
         id="rect4215"
         style="opacity:0;fill:#e270a2;fill-opacity:1;stroke-width:1.5;stroke-linecap:round;stroke-miterlimit:4;stroke-dasharray:none" />
    </g>
  </g>
</svg>
