<?xml version="1.0" encoding="UTF-8" standalone="no"?>
<!-- Created with Inkscape (http://www.inkscape.org/) -->

<svg
   xmlns:dc="http://purl.org/dc/elements/1.1/"
   xmlns:cc="http://creativecommons.org/ns#"
   xmlns:rdf="http://www.w3.org/1999/02/22-rdf-syntax-ns#"
   xmlns:svg="http://www.w3.org/2000/svg"
   xmlns="http://www.w3.org/2000/svg"
   xmlns:sodipodi="http://sodipodi.sourceforge.net/DTD/sodipodi-0.dtd"
   xmlns:inkscape="http://www.inkscape.org/namespaces/inkscape"
   width="22"
   height="22"
   viewBox="0 0 22 22"
   id="svg2"
   version="1.1"
   inkscape:version="0.91 r13725"
   sodipodi:docname="close.svg">
  <defs
     id="defs4" />
  <sodipodi:namedview
     id="base"
     pagecolor="#ffffff"
     bordercolor="#666666"
     borderopacity="1.0"
     inkscape:pageopacity="0.0"
     inkscape:pageshadow="2"
     inkscape:zoom="13.986784"
     inkscape:cx="42.213607"
     inkscape:cy="16.483653"
     inkscape:document-units="px"
     inkscape:current-layer="layer1"
     showgrid="true"
     inkscape:window-width="1818"
     inkscape:window-height="675"
     inkscape:window-x="734"
     inkscape:window-y="12"
     inkscape:window-maximized="0"
     fit-margin-top="0"
     fit-margin-left="0"
     fit-margin-right="0"
     fit-margin-bottom="0"
     units="px">
    <inkscape:grid
       type="xygrid"
       id="grid4201"
       originx="-645"
       originy="-249.00002" />
  </sodipodi:namedview>
  <metadata
     id="metadata7">
    <rdf:RDF>
      <cc:Work
         rdf:about="">
        <dc:format>image/svg+xml</dc:format>
        <dc:type
           rdf:resource="http://purl.org/dc/dcmitype/StillImage" />
        <dc:title></dc:title>
      </cc:Work>
    </rdf:RDF>
  </metadata>
  <g
     inkscape:label="Layer 1"
     inkscape:groupmode="layer"
     id="layer1"
     transform="translate(-645,-781.36218)">
    <g
       id="g4217">
      <path
         id="path4203"
         d="m 656,783.36133 a 9,9 0 0 0 -9,9 9,9 0 0 0 9,9 9,9 0 0 0 9,-9 9,9 0 0 0 -9,-9 z m -4.00781,4.24414 a 0.750075,0.750075 0 0 1 0.53906,0.22656 l 3.46875,3.46875 3.46875,-3.46875 a 0.750075,0.750075 0 0 1 0.51563,-0.22656 0.750075,0.750075 0 0 1 0.54687,1.28711 l -3.46875,3.4707 3.46875,3.46875 a 0.75061184,0.75061184 0 1 1 -1.0625,1.06055 L 656,793.42383 l -3.46875,3.46875 a 0.75061184,0.75061184 0 1 1 -1.0625,-1.06055 l 3.46875,-3.46875 -3.46875,-3.4707 a 0.750075,0.750075 0 0 1 0.52344,-1.28711 z"
         style="opacity:1;fill:#e270a2;fill-opacity:1"
         inkscape:connector-curvature="0" />
      <rect
         y="781.36218"
         x="645"
         height="22"
         width="22"
         id="rect4215"
         style="opacity:0;fill:#e270a2;fill-opacity:1;stroke-width:1.5;stroke-linecap:round;stroke-miterlimit:4;stroke-dasharray:none" />
    </g>
  </g>
</svg>
