<?xml version="1.0" encoding="UTF-8" standalone="no"?>
<svg
   xmlns:dc="http://purl.org/dc/elements/1.1/"
   xmlns:cc="http://creativecommons.org/ns#"
   xmlns:rdf="http://www.w3.org/1999/02/22-rdf-syntax-ns#"
   xmlns:svg="http://www.w3.org/2000/svg"
   xmlns="http://www.w3.org/2000/svg"
   xmlns:sodipodi="http://sodipodi.sourceforge.net/DTD/sodipodi-0.dtd"
   xmlns:inkscape="http://www.inkscape.org/namespaces/inkscape"
   viewBox="0 0 22 22"
   id="svg2"
   version="1.1"
   inkscape:version="0.91 r13725"
   sodipodi:docname="color-picker.svg">
  <metadata
     id="metadata39">
    <rdf:RDF>
      <cc:Work
         rdf:about="">
        <dc:format>image/svg+xml</dc:format>
        <dc:type
           rdf:resource="http://purl.org/dc/dcmitype/StillImage" />
        <dc:title />
      </cc:Work>
    </rdf:RDF>
  </metadata>
  <sodipodi:namedview
     pagecolor="#ffffff"
     bordercolor="#666666"
     borderopacity="1"
     objecttolerance="10"
     gridtolerance="10"
     guidetolerance="10"
     inkscape:pageopacity="0"
     inkscape:pageshadow="2"
     inkscape:window-width="2560"
     inkscape:window-height="1019"
     id="namedview37"
     showgrid="false"
     inkscape:zoom="10.727273"
     inkscape:cx="68.050847"
     inkscape:cy="-14.414909"
     inkscape:window-x="0"
     inkscape:window-y="0"
     inkscape:window-maximized="1"
     inkscape:current-layer="svg2" />
  <defs
     id="defs4" />
  <g
     id="active-center" />
  <g
     id="inactive-center">
    <path
       id="rect4151"
       d="M 0,0 22,0 22,22 0,22 Z"
       stroke-miterlimit="58.8"
       inkscape:connector-curvature="0"
       style="opacity:0;fill:#ebebeb;stroke-width:1.16600001;stroke-linejoin:round;stroke-miterlimit:58.79999924" />
    <path
       id="path4153"
       d="m 11,2 a 9,9 0 0 0 -9,9 9,9 0 0 0 9,9 9,9 0 0 0 9,-9 9,9 0 0 0 -9,-9 z m 0,2 a 7,7 0 0 1 7,7 7,7 0 0 1 -7,7 7,7 0 0 1 -7,-7 7,7 0 0 1 7,-7 z"
       stroke-miterlimit="58.8"
       inkscape:connector-curvature="0"
       style="fill:#a5a5a5;stroke-width:1.16600001;stroke-linejoin:round;stroke-miterlimit:58.79999924" />
    <circle
       r="4"
       cy="11"
       id="circle4155"
       stroke-miterlimit="58.8"
       cx="11"
       style="fill:#ce99cd;stroke-width:1.16600001;stroke-linejoin:round;stroke-miterlimit:58.79999924" />
  </g>
</svg>
