<?xml version="1.0" encoding="UTF-8" standalone="no"?>
<svg
   xmlns:dc="http://purl.org/dc/elements/1.1/"
   xmlns:cc="http://creativecommons.org/ns#"
   xmlns:rdf="http://www.w3.org/1999/02/22-rdf-syntax-ns#"
   xmlns:svg="http://www.w3.org/2000/svg"
   xmlns="http://www.w3.org/2000/svg"
   xmlns:sodipodi="http://sodipodi.sourceforge.net/DTD/sodipodi-0.dtd"
   xmlns:inkscape="http://www.inkscape.org/namespaces/inkscape"
   version="1.1"
   id="svg2"
   height="16"
   width="16"
   inkscape:version="0.91 r13725"
   sodipodi:docname="start.svg">
  <sodipodi:namedview
     pagecolor="#ffffff"
     bordercolor="#666666"
     borderopacity="1"
     objecttolerance="10"
     gridtolerance="10"
     guidetolerance="10"
     inkscape:pageopacity="0"
     inkscape:pageshadow="2"
     inkscape:window-width="779"
     inkscape:window-height="480"
     id="namedview13"
     showgrid="false"
     inkscape:zoom="14.75"
     inkscape:cx="2.8659292"
     inkscape:cy="8"
     inkscape:window-x="966"
     inkscape:window-y="359"
     inkscape:window-maximized="0"
     inkscape:current-layer="svg2" />
  <title
     id="title4078">LXQt logo</title>
  <defs
     id="defs4" />
  <metadata
     id="metadata7">
    <rdf:RDF>
      <cc:Work
         rdf:about="">
        <dc:format>image/svg+xml</dc:format>
        <dc:type
           rdf:resource="http://purl.org/dc/dcmitype/StillImage" />
        <dc:title>LXQt logo</dc:title>
        <dc:creator>
          <cc:Agent>
            <dc:title>Giacomo Barazzetti</dc:title>
          </cc:Agent>
        </dc:creator>
        <cc:license
           rdf:resource="http://creativecommons.org/licenses/by-sa/3.0/" />
      </cc:Work>
      <cc:License
         rdf:about="http://creativecommons.org/licenses/by-sa/3.0/">
        <cc:permits
           rdf:resource="http://creativecommons.org/ns#Reproduction" />
        <cc:permits
           rdf:resource="http://creativecommons.org/ns#Distribution" />
        <cc:requires
           rdf:resource="http://creativecommons.org/ns#Notice" />
        <cc:requires
           rdf:resource="http://creativecommons.org/ns#Attribution" />
        <cc:permits
           rdf:resource="http://creativecommons.org/ns#DerivativeWorks" />
        <cc:requires
           rdf:resource="http://creativecommons.org/ns#ShareAlike" />
      </cc:License>
    </rdf:RDF>
  </metadata>
  <g
     transform="translate(0,-334)"
     style="display:inline"
     id="layer1" />
  <g
     style="display:inline;fill:#171717;opacity:0.8"
     id="layer2"
     transform="translate(-575.98291,-779.48535)">
    <g
       id="flowRoot3012"
       style="font-style:normal;font-variant:normal;font-weight:normal;font-stretch:normal;font-size:10px;line-height:125%;font-family:FontAwesome;-inkscape-font-specification:FontAwesome;text-align:start;letter-spacing:0px;word-spacing:0px;writing-mode:lr-tb;text-anchor:start;fill:#171717;fill-opacity:1;stroke:none"
       transform="translate(-249.22717,-823.47169)" />
    <path
       id="path3149-8"
       d="m 584.97766,779.50089 c 0.87118,0.0357 1.77018,0.4415 2.00525,0.98446 l 5,1 -6,0 c -0.0547,-0.9664 -0.9352,-0.95681 -1.5,-1 -0.46352,0.0503 -1.47051,-0.006 -1.5,2 -1.31207,0 -1.99367,-3 1.99475,-2.98446 z"
       style="fill:#ce99cd;fill-opacity:1;stroke:none" />
    <path
       style="fill:#ce99cd;fill-opacity:1;stroke:none"
       d="m 583.98291,785.48535 -7.56299,-5 c -0.36233,0.68741 -0.50573,1.47956 -0.40624,2.24412 0.0995,0.76457 0.44146,1.49844 0.96878,2.07902 0.6916,0.76145 1.95151,1.60057 3.00045,1.67686 -0.49517,-0.1537 -1.1685,-0.63108 -1.55507,-1.14605 -0.26552,-0.3537 -0.38192,-0.80964 -0.45768,-1.24538 -0.0918,-0.52828 -0.17671,-1.06564 0.0127,-1.60857 z"
       id="path3151-3" />
    <path
       style="fill:#ce99cd;fill-opacity:1;stroke:none"
       d="m 583.27043,787.39434 -6.24477,-1.89995 c -0.0503,0.63153 0.0642,1.27745 0.32717,1.84403 0.26294,0.56655 0.67332,1.05204 1.17166,1.38594 0.73925,0.49531 1.61852,1.00509 2.45842,0.76099 -0.84142,0.006 -1.48196,-0.74115 -1.76576,-1.36037 -0.28379,-0.61922 -0.73631,-1.74607 -0.23424,-1.63963 z"
       id="path3153-6" />
    <path
       id="path3155-5"
       d="m 586.98291,783.48535 c -0.14026,0.25548 -0.8384,0.56894 -0.96776,1.01922 -0.2213,0.77029 0.18484,1.5134 0.47762,2.35643 0.29278,0.84303 0.63634,1.75012 0.49014,2.62435 -0.1109,0.66312 -0.15704,1.26103 -0.53137,1.73691 -0.43962,0.55888 -1.15445,0.88254 -1.8355,1.08692 -1.1613,0.3485 -2.42745,0.4092 -3.63313,0.17617 l 0,3 1,-2 c 1.28479,0.25859 2.64539,0.082 3.86566,-0.36681 0.85629,-0.31493 1.64607,-0.80323 2.22215,-1.4615 0.57607,-0.65827 0.92788,-1.49218 0.90464,-2.33428 -0.0276,-1.0026 -0.56412,-1.92692 -1.08255,-2.81128 -0.43329,-0.97354 -0.81557,-2.47977 -0.9099,-3.02613 z"
       style="fill:#ce99cd;fill-opacity:1;stroke:none" />
  </g>
</svg>
