<?xml version="1.0" encoding="UTF-8" standalone="no"?>
<svg
   xmlns:dc="http://purl.org/dc/elements/1.1/"
   xmlns:cc="http://creativecommons.org/ns#"
   xmlns:rdf="http://www.w3.org/1999/02/22-rdf-syntax-ns#"
   xmlns:svg="http://www.w3.org/2000/svg"
   xmlns="http://www.w3.org/2000/svg"
   width="44"
   height="44"
   viewBox="0 0 43.999998 43.999998"
   id="svg4235"
   version="1.1">
  <defs
     id="defs4237" />
  <g
     id="layer1"
     transform="matrix(1.9999998,0,0,1.9999998,0,-2060.7242)">
    <g
       id="g4282"
       transform="translate(-645,275.99804)">
      <g
         id="g4369"
         transform="translate(0,-26.998024)">
        <path
           style="opacity:1;fill:#fcfcfc;fill-opacity:1"
           d="m 656.0098,789.61113 a 0.750075,0.750075 0 0 1 0.52148,0.2207 l 4,4 a 0.75061184,0.75061184 0 1 1 -1.0625,1.06055 L 656,791.42363 l -3.46875,3.46875 a 0.750075,0.750075 0 0 1 -0.53906,0.22851 0.750075,0.750075 0 0 1 -0.52344,-1.28906 l 4,-4 a 0.750075,0.750075 0 0 1 0.54102,-0.2207 z"
           id="path4284" />
        <rect
           y="781.36218"
           x="645"
           height="22"
           width="22"
           id="rect4286"
           style="opacity:0;fill:#e270a2;fill-opacity:1;stroke-width:1.5;stroke-linecap:round;stroke-miterlimit:4;stroke-dasharray:none" />
      </g>
    </g>
  </g>
</svg>
