<?xml version="1.0" encoding="UTF-8" standalone="no"?>
<svg
   xmlns:dc="http://purl.org/dc/elements/1.1/"
   xmlns:cc="http://creativecommons.org/ns#"
   xmlns:rdf="http://www.w3.org/1999/02/22-rdf-syntax-ns#"
   xmlns:svg="http://www.w3.org/2000/svg"
   xmlns="http://www.w3.org/2000/svg"
   version="1.1"
   id="svg4235"
   viewBox="0 0 21.999999 21.999999"
   height="22"
   width="22">
  <defs
     id="defs4237" />
  <g
     transform="translate(0,-1030.3622)"
     id="layer1">
    <g
       transform="translate(-645,275.99804)"
       id="g4425">
      <g
         transform="translate(0,-26.998024)"
         id="g4427">
        <path
           id="path4429"
           d="m 11,72.998047 a 9,9 0 0 0 -9,9 9,9 0 0 0 9,9 9,9 0 0 0 9,-9 9,9 0 0 0 -9,-9 z m 0.0098,6.25 a 0.750075,0.750075 0 0 1 0.521484,0.220703 l 4,4 a 0.75061184,0.75061184 0 1 1 -1.0625,1.060547 L 11,81.060547 7.53125,84.529297 A 0.750075,0.750075 0 0 1 6.9921875,84.757812 0.750075,0.750075 0 0 1 6.46875,83.46875 l 4,-4 a 0.750075,0.750075 0 0 1 0.541016,-0.220703 z"
           style="opacity:1;fill:#fcfcfc;fill-opacity:1"
           transform="translate(645,710.36308)" />
        <rect
           style="opacity:0;fill:#e270a2;fill-opacity:1;stroke-width:1.5;stroke-linecap:round;stroke-miterlimit:4;stroke-dasharray:none"
           id="rect4431"
           width="22"
           height="22"
           x="645"
           y="781.36218" />
      </g>
    </g>
  </g>
</svg>
