<?xml version="1.0" encoding="UTF-8" standalone="no"?>
<svg
   xmlns:dc="http://purl.org/dc/elements/1.1/"
   xmlns:cc="http://creativecommons.org/ns#"
   xmlns:rdf="http://www.w3.org/1999/02/22-rdf-syntax-ns#"
   xmlns:svg="http://www.w3.org/2000/svg"
   xmlns="http://www.w3.org/2000/svg"
   id="svg2"
   version="1.1"
   viewBox="0 0 16 16">
  <defs
     id="defs4" />
  <path
     style="opacity:0.8"
     id="qbittorrent"
     d="M 7.988281,2.8e-7 C 3.583183,2.8e-7 0,3.5884744 0,8.0000004 0,9.3942736 0.35960402,10.705116 0.98828102,11.847656 1.117034,12.081649 1.257486,12.308321 1.408203,12.527344 1.559409,12.747077 1.722729,12.957003 1.894531,13.160156 3.360963,14.894194 5.546613,16 7.988281,16 12.393379,16 15.976562,12.411526 15.976562,8.0000004 15.976562,3.5884744 12.393379,2.8e-7 7.988281,2.8e-7 Z m 0,1.01562502 c 3.856624,0 6.974609,3.1221235 6.974609,6.9843751 0,1.103676 -0.263174,2.1431246 -0.716797,3.0703116 C 8.263624,10.763584 9.5540646,6.9788905 12.976562,8.5000004 11.685872,6.6715229 10.44962,5.9724295 9.2597646,5.9589848 6.56141,5.9284949 4.107072,9.4007091 1.814453,11.246094 1.305955,10.276365 1.013672,9.1730466 1.013672,8.0000004 c 0,-3.8622516 3.117985,-6.9843751 6.974609,-6.9843751 z"
     mask="none" />
  <metadata
     id="metadata9999">
    <rdf:RDF>
      <cc:Work>
        <dc:format>image/svg+xml</dc:format>
        <dc:type
           rdf:resource="http://purl.org/dc/dcmitype/StillImage" />
        <dc:title></dc:title>
        <cc:license
           rdf:resource="http://creativecommons.org/licenses/by-sa/4.0/" />
        <dc:creator>
          <cc:Agent>
            <dc:title>Sixsixfive (sixsixfive.deviantart.com)</dc:title>
          </cc:Agent>
        </dc:creator>
        <dc:publisher>
          <cc:Agent>
            <dc:title>Sixsixfive (sixsixfive.deviantart.com)</dc:title>
          </cc:Agent>
        </dc:publisher>
        <dc:source>https://github.com/sixsixfive</dc:source>
        <dc:subject>
          <rdf:Bag>
            <rdf:li>ivy</rdf:li>
          </rdf:Bag>
        </dc:subject>
        <dc:contributor>
          <cc:Agent>
            <dc:title>ssf</dc:title>
          </cc:Agent>
        </dc:contributor>
        <dc:rights>
          <cc:Agent>
            <dc:title>Sixsixfive (sixisixfive.deviantart.com)</dc:title>
          </cc:Agent>
        </dc:rights>
        <dc:description>A simple icon theme published under CC-BY-SA_V4(http://creativecommons.org/licenses/by-sa/4.0)</dc:description>
        <dc:identifier>SSF</dc:identifier>
      </cc:Work>
    </rdf:RDF>
  </metadata>
  <!--Part of the Ivy icon them published under the CC-BY-SA_V4: http://creativecommons.org/licenses/by-sa/4.0 -->
</svg>
