<?xml version="1.0" encoding="UTF-8" standalone="no"?>
<svg
   xmlns:dc="http://purl.org/dc/elements/1.1/"
   xmlns:cc="http://creativecommons.org/ns#"
   xmlns:rdf="http://www.w3.org/1999/02/22-rdf-syntax-ns#"
   xmlns:svg="http://www.w3.org/2000/svg"
   xmlns="http://www.w3.org/2000/svg"
   version="1.1"
   id="svg2"
   viewBox="0 0 16 16">
  <metadata
     id="metadata9">
    <rdf:RDF>
      <cc:Work
         rdf:about="">
        <dc:format>image/svg+xml</dc:format>
        <dc:type
           rdf:resource="http://purl.org/dc/dcmitype/StillImage" />
        <dc:title></dc:title>
      </cc:Work>
    </rdf:RDF>
  </metadata>
  <defs
     id="defs3051">
    <style
       id="current-color-scheme"
       type="text/css">
      .ColorScheme-Text {
        color:#4d4d4d;
      }
      </style>
  </defs>
  <g
     id="start-here-kde">
    <path
       style="fill:#000000;fill-opacity:1;stroke:none;opacity:0.8"
       d="M 5 2 C 4.4477153 2 4 2.4477153 4 3 C 4 3.5522847 4.4477153 4 5 4 C 5.5522847 4 6 3.5522847 6 3 C 6 2.4477153 5.5522847 2 5 2 z M 10 2 L 9 3 L 12 6 L 9 9 L 10 10 L 14 6 L 10 2 z M 3.5 6 C 2.6715729 6 2 6.6715729 2 7.5 C 2 8.3284271 2.6715729 9 3.5 9 C 4.3284271 9 5 8.3284271 5 7.5 C 5 6.6715729 4.3284271 6 3.5 6 z M 6.5 11 C 5.6715729 11 5 11.671573 5 12.5 C 5 13.328427 5.6715729 14 6.5 14 C 7.3284271 14 8 13.328427 8 12.5 C 8 11.671573 7.3284271 11 6.5 11 z "
       id="path2994"
       class="ColorScheme-Text" />
    <rect
       style="opacity:0;fill:#00d4ff;fill-opacity:1;stroke:none;stroke-width:1;stroke-miterlimit:4;stroke-dasharray:none;stroke-opacity:1"
       id="rect4139"
       width="16"
       height="16"
       x="0"
       y="0" />
  </g>
</svg>
