<?xml version="1.0" encoding="UTF-8" standalone="no"?>
<svg
   xmlns:dc="http://purl.org/dc/elements/1.1/"
   xmlns:cc="http://creativecommons.org/ns#"
   xmlns:rdf="http://www.w3.org/1999/02/22-rdf-syntax-ns#"
   xmlns:svg="http://www.w3.org/2000/svg"
   xmlns="http://www.w3.org/2000/svg"
   viewBox="0 0 16 16"
   version="1.1"
   id="svg2">
  <defs
     id="defs4" />
  <path
     d="M 11.806641 0.1015625 C 10.124901 0.1061625 8.6805419 1.1074819 8.0136719 2.5449219 C 7.3392259 1.1110619 5.8887813 0.11660375 4.2070312 0.12109375 C 1.8885412 0.12735375 0.011418125 2.0236656 0.017578125 4.3535156 C 0.027590872 8.1437652 3.0705475 9.7132325 5.9550781 12.572266 C 5.9547436 12.568537 5.9554032 12.562193 5.9550781 12.558594 C 5.9110774 12.483302 5.8555064 12.380568 5.7734375 12.279297 C 5.5802129 12.040864 5.3119104 11.73643 5.0449219 11.417969 C 4.7779326 11.099507 4.5122642 10.773834 4.2890625 10.431641 C 4.177462 10.260544 4.07503 10.087536 3.9882812 9.8632812 C 3.9015332 9.6390267 3.7815286 9.3307302 3.9277344 8.859375 C 4.1917557 8.0081947 4.6952406 7.9406157 5.0507812 7.7890625 C 5.4063219 7.6375093 5.7752979 7.5307501 6.1367188 7.4316406 C 6.4981402 7.3325312 6.8496746 7.2457341 7.1113281 7.1699219 C 7.2179381 7.1390324 7.3011199 7.097273 7.3691406 7.0664062 C 7.4373587 6.9885974 7.5383259 6.8749076 7.6269531 6.7480469 C 7.8204418 6.4710888 8.062362 6.1075676 8.3144531 5.7421875 C 8.5665442 5.3768074 8.8255086 5.0126908 9.0996094 4.6953125 C 9.2366597 4.5366234 9.3723721 4.388257 9.5566406 4.2421875 C 9.7409085 4.0961181 9.971144 3.8826247 10.501953 3.8828125 C 11.032689 3.8830001 11.252831 4.0900604 11.4375 4.2324219 C 11.622168 4.3747833 11.762945 4.5205743 11.904297 4.6777344 C 12.187002 4.9920545 12.458004 5.3553793 12.722656 5.7207031 C 12.987309 6.0860269 13.241656 6.4512434 13.445312 6.7304688 C 13.543746 6.8654276 13.657721 6.9904141 13.728516 7.0703125 C 13.793733 7.1000965 13.878456 7.1420125 13.984375 7.1738281 C 14.236576 7.2495834 14.576395 7.3376888 14.925781 7.4375 C 14.970433 7.4502559 15.015712 7.46547 15.060547 7.4785156 C 15.651143 6.568691 16.020874 5.5582685 16.017578 4.3105469 C 16.011378 1.9806969 14.125131 0.0953725 11.806641 0.1015625 z "
     id="path11"
     style="fill:#fcfcfc" />
  <metadata
     id="metadata9999">
    <rdf:RDF>
      <cc:Work>
        <dc:format>image/svg+xml</dc:format>
        <dc:type
           rdf:resource="http://purl.org/dc/dcmitype/StillImage" />
        <dc:title />
        <cc:license
           rdf:resource="http://creativecommons.org/licenses/by-sa/4.0/" />
        <dc:creator>
          <cc:Agent>
            <dc:title>Sixsixfive (sixsixfive.deviantart.com)</dc:title>
          </cc:Agent>
        </dc:creator>
        <dc:publisher>
          <cc:Agent>
            <dc:title>Sixsixfive (sixsixfive.deviantart.com)</dc:title>
          </cc:Agent>
        </dc:publisher>
        <dc:source>https://github.com/sixsixfive</dc:source>
        <dc:subject>
          <rdf:Bag>
            <rdf:li>ivy</rdf:li>
          </rdf:Bag>
        </dc:subject>
        <dc:contributor>
          <cc:Agent>
            <dc:title>ssf</dc:title>
          </cc:Agent>
        </dc:contributor>
        <dc:rights>
          <cc:Agent>
            <dc:title>Sixsixfive (sixisixfive.deviantart.com)</dc:title>
          </cc:Agent>
        </dc:rights>
        <dc:description>A simple icon theme published under CC-BY-SA_V4(http://creativecommons.org/licenses/by-sa/4.0)</dc:description>
        <dc:identifier>SSF</dc:identifier>
      </cc:Work>
    </rdf:RDF>
  </metadata>
  <!--Part of the Ivy icon them published under the CC-BY-SA_V4: http://creativecommons.org/licenses/by-sa/4.0 -->
  <g
     style="stroke-linejoin:round"
     id="g3503"
     transform="matrix(0.6875,0,0,0.6875,21.999428,5.0126348)">
    <path
       style="fill:#ffc106;fill-opacity:1;stroke-linecap:round;stroke-linejoin:round"
       d="m -11.994272,15.933698 c -0.635915,0.484182 -3.949703,-2.859966 -4.735544,-2.860243 -0.785842,-2.79e-4 -4.100853,3.341383 -4.736456,2.85675 -0.635603,-0.484632 -0.01141,-4.708158 -0.254,-5.492032 C -21.962858,9.6542984 -24.95717,6.8663424 -24.71408,6.0826398 -24.470989,5.298937 -20.905628,4.833681 -20.269713,4.349498 -19.633798,3.8653148 -17.511126,-2.7784376e-4 -16.725285,8.2539016e-8 -15.939443,2.779062e-4 -13.673316,3.8669599 -13.037713,4.351593 c 0.635603,0.4846329 4.054723,0.9528214 4.297309,1.736696 0.242586,0.7838745 -2.752778,3.5695712 -2.995868,4.353273 -0.243091,0.783704 0.377914,5.007952 -0.258,5.492136 z"
       id="path3363" />
  </g>
</svg>
