<?xml version="1.0" encoding="UTF-8" standalone="no"?>
<svg
   xmlns:dc="http://purl.org/dc/elements/1.1/"
   xmlns:cc="http://creativecommons.org/ns#"
   xmlns:rdf="http://www.w3.org/1999/02/22-rdf-syntax-ns#"
   xmlns:svg="http://www.w3.org/2000/svg"
   xmlns="http://www.w3.org/2000/svg"
   viewBox="0 0 16 16"
   version="1.1"
   id="svg2">
  <defs
     id="defs4" />
  <path
     style="fill:#fcfcfc"
     d="M 6.9101562 0.009765625 C 3.8092162 0.096461625 2.8305338 2.1986019 2.9960938 3.9824219 C 3.1937388 4.1345769 3.7828484 4.0276787 3.9902344 4.0898438 C 3.8462935 5.5780372 4.0564833 6.9027787 5.0253906 7.9589844 C 5.052994 7.9482547 5.0830144 7.9370177 5.109375 7.9257812 C 5.4523846 7.7795695 5.8166168 7.6727093 6.1757812 7.5742188 C 6.5349457 7.4757282 6.8864456 7.387589 7.1523438 7.3105469 C 7.2772872 7.2743454 7.3881752 7.224649 7.4589844 7.1933594 C 7.5247194 7.1162709 7.6439755 6.982952 7.7480469 6.8339844 C 7.9432804 6.5545284 8.1845784 6.187972 8.4355469 5.8242188 C 8.686516 5.4604655 8.9439923 5.100108 9.2109375 4.7910156 C 9.3444094 4.6364694 9.478187 4.4958812 9.6503906 4.359375 C 9.8225949 4.2228688 10.032029 4.0310838 10.501953 4.03125 C 10.714956 4.0313253 10.866771 4.0726926 10.992188 4.1269531 C 11.215336 2.4113016 9.8030868 0.060063685 7.2226562 0.009765625 C 7.1173293 0.007757625 7.0101912 0.006970625 6.9101562 0.009765625 z M 4.0175781 9.3359375 L 1.609375 10.134766 C 0.04036503 10.510821 -0.077203125 12.82586 0.029296875 14 C 6.0810683 13.982209 5.9734075 13.98263 6.078125 13.986328 C 6.0939631 13.605523 6.1128126 13.225442 6.1210938 12.931641 C 6.125685 12.768749 6.1111312 12.605258 6.1035156 12.505859 C 6.057413 12.430098 5.9831745 12.304113 5.8886719 12.1875 C 5.6927358 11.945721 5.4258764 11.639213 5.1601562 11.322266 C 4.8944368 11.005318 4.6305507 10.68151 4.4140625 10.349609 C 4.3058184 10.183659 4.2056871 10.017179 4.125 9.8085938 C 4.0765235 9.6832766 4.0271702 9.5271698 4.0175781 9.3359375 z "
     id="path11" />
  <g
     id="g3503"
     transform="matrix(0.6875,0,0,0.6875,21.999428,5.0126348)"
     style="fill:#ffc106;fill-opacity:1;stroke-linejoin:round">
    <path
       id="path3363"
       d="m -11.994272,15.933698 c -0.635915,0.484182 -3.949703,-2.859966 -4.735544,-2.860243 -0.785842,-2.79e-4 -4.100853,3.341383 -4.736456,2.85675 -0.635603,-0.484632 -0.01141,-4.708158 -0.254,-5.492032 C -21.962858,9.6542984 -24.95717,6.8663424 -24.71408,6.0826398 -24.470989,5.298937 -20.905628,4.833681 -20.269713,4.349498 -19.633798,3.8653148 -17.511126,-2.7784376e-4 -16.725285,8.2539016e-8 -15.939443,2.779062e-4 -13.673316,3.8669599 -13.037713,4.351593 c 0.635603,0.4846329 4.054723,0.9528214 4.297309,1.736696 0.242586,0.7838745 -2.752778,3.5695712 -2.995868,4.353273 -0.243091,0.783704 0.377914,5.007952 -0.258,5.492136 z"
       style="fill:#f6bb00;fill-opacity:1;stroke-linecap:round;stroke-linejoin:round" />
  </g>
  <g
     style="fill:#ed4c70;fill-opacity:1;stroke-linejoin:round"
     transform="matrix(0.6875,0,0,0.6875,21.999428,5.0126348)"
     id="g4498" />
  <metadata
     id="metadata9999">
    <rdf:RDF>
      <cc:Work>
        <dc:format>image/svg+xml</dc:format>
        <dc:type
           rdf:resource="http://purl.org/dc/dcmitype/StillImage" />
        <dc:title />
        <cc:license
           rdf:resource="http://creativecommons.org/licenses/by-sa/4.0/" />
        <dc:creator>
          <cc:Agent>
            <dc:title>Sixsixfive (sixsixfive.deviantart.com)</dc:title>
          </cc:Agent>
        </dc:creator>
        <dc:publisher>
          <cc:Agent>
            <dc:title>Sixsixfive (sixsixfive.deviantart.com)</dc:title>
          </cc:Agent>
        </dc:publisher>
        <dc:source>https://github.com/sixsixfive</dc:source>
        <dc:subject>
          <rdf:Bag>
            <rdf:li>ivy</rdf:li>
          </rdf:Bag>
        </dc:subject>
        <dc:contributor>
          <cc:Agent>
            <dc:title>ssf</dc:title>
          </cc:Agent>
        </dc:contributor>
        <dc:rights>
          <cc:Agent>
            <dc:title>Sixsixfive (sixisixfive.deviantart.com)</dc:title>
          </cc:Agent>
        </dc:rights>
        <dc:description>A simple icon theme published under CC-BY-SA_V4(http://creativecommons.org/licenses/by-sa/4.0)</dc:description>
        <dc:identifier>SSF</dc:identifier>
      </cc:Work>
      <cc:License
         rdf:about="http://creativecommons.org/licenses/by-sa/4.0/">
        <cc:permits
           rdf:resource="http://creativecommons.org/ns#Reproduction" />
        <cc:permits
           rdf:resource="http://creativecommons.org/ns#Distribution" />
        <cc:requires
           rdf:resource="http://creativecommons.org/ns#Notice" />
        <cc:requires
           rdf:resource="http://creativecommons.org/ns#Attribution" />
        <cc:permits
           rdf:resource="http://creativecommons.org/ns#DerivativeWorks" />
        <cc:requires
           rdf:resource="http://creativecommons.org/ns#ShareAlike" />
      </cc:License>
    </rdf:RDF>
  </metadata>
  <!--Part of the Ivy icon them published under the CC-BY-SA_V4: http://creativecommons.org/licenses/by-sa/4.0 -->
</svg>
