<?xml version="1.0" encoding="UTF-8" standalone="no"?>
<svg
   xmlns:dc="http://purl.org/dc/elements/1.1/"
   xmlns:cc="http://creativecommons.org/ns#"
   xmlns:rdf="http://www.w3.org/1999/02/22-rdf-syntax-ns#"
   xmlns:svg="http://www.w3.org/2000/svg"
   xmlns="http://www.w3.org/2000/svg"
   viewBox="0 0 16 16"
   version="1.1"
   id="svg2">
  <defs
     id="defs4" />
  <path
     style="opacity:1;fill:#fcfcfc"
     d="M 8.2324219,0.015625 C 5.1027159,-0.11937202 2.0245346,1.799239 0.74412623,4.6537769 -0.60099093,7.4846051 -0.05255964,11.078139 2.0869294,13.37114 4.1267909,15.674309 7.5549617,16.580314 10.469023,15.599407 13.486337,14.65663 15.765077,11.772354 15.964988,8.6146219 16.238962,5.5619179 14.558385,2.4588416 11.862406,1.0063735 10.754706,0.39161519 9.4985506,0.0505291 8.2324219,0.015625 Z M 9,3 C 9.8133019,2.9549728 10.320036,4.0314947 9.7722905,4.6320637 9.2917746,5.2891905 8.1399672,4.9975504 8.0202349,4.1955449 7.8801984,3.5956057 8.3852313,2.9824303 9,3 Z M 9.6523438,6 C 10.008035,6.7062939 9.3393537,7.5045166 9.2610208,8.2366816 8.9861632,9.1121081 8.7670999,10.01488 8.4414062,10.867189 c 0.1687861,0.659887 1.1592905,-0.177358 1.5482697,-0.29189 0.3124831,-0.08266 0.4488841,-0.645468 0.7681661,-0.544049 0.271218,0.03478 0.127697,0.534812 0.150023,0.797347 C 10.80198,11.763911 9.7249737,11.996461 9.050731,12.420075 8.3482256,12.74699 7.545147,13.151752 6.760547,12.921646 6.0066847,12.350471 6.6052075,11.316408 6.7836092,10.591222 7.0611573,9.6405598 7.4685676,8.7209455 7.6542969,7.7480469 7.3312567,7.5647594 6.6704742,7.9840324 6.2910153,8.0761713 6.0254065,8.1079597 5.9568891,7.9300286 6.0178109,7.6553441 6.0643706,7.437406 5.9724663,7.095743 6.1406243,7.0058527 6.8533412,6.6687949 7.5441609,6.1896976 8.3035325,6 8.7531363,6 9.20274,6 9.6523438,6 Z"
     id="path16" />
  <metadata
     id="metadata9999">
    <rdf:RDF>
      <cc:Work>
        <dc:format>image/svg+xml</dc:format>
        <dc:type
           rdf:resource="http://purl.org/dc/dcmitype/StillImage" />
        <dc:title />
        <cc:license
           rdf:resource="http://creativecommons.org/licenses/by-sa/4.0/" />
        <dc:creator>
          <cc:Agent>
            <dc:title>Sixsixfive (sixsixfive.deviantart.com)</dc:title>
          </cc:Agent>
        </dc:creator>
        <dc:publisher>
          <cc:Agent>
            <dc:title>Sixsixfive (sixsixfive.deviantart.com)</dc:title>
          </cc:Agent>
        </dc:publisher>
        <dc:source>https://github.com/sixsixfive</dc:source>
        <dc:subject>
          <rdf:Bag>
            <rdf:li>ivy</rdf:li>
          </rdf:Bag>
        </dc:subject>
        <dc:contributor>
          <cc:Agent>
            <dc:title>ssf</dc:title>
          </cc:Agent>
        </dc:contributor>
        <dc:rights>
          <cc:Agent>
            <dc:title>Sixsixfive (sixisixfive.deviantart.com)</dc:title>
          </cc:Agent>
        </dc:rights>
        <dc:description>A simple icon theme published under CC-BY-SA_V4(http://creativecommons.org/licenses/by-sa/4.0)</dc:description>
        <dc:identifier>SSF</dc:identifier>
      </cc:Work>
      <cc:License
         rdf:about="http://creativecommons.org/licenses/by-sa/4.0/">
        <cc:permits
           rdf:resource="http://creativecommons.org/ns#Reproduction" />
        <cc:permits
           rdf:resource="http://creativecommons.org/ns#Distribution" />
        <cc:requires
           rdf:resource="http://creativecommons.org/ns#Notice" />
        <cc:requires
           rdf:resource="http://creativecommons.org/ns#Attribution" />
        <cc:permits
           rdf:resource="http://creativecommons.org/ns#DerivativeWorks" />
        <cc:requires
           rdf:resource="http://creativecommons.org/ns#ShareAlike" />
      </cc:License>
    </rdf:RDF>
  </metadata>
  <!--Part of the Ivy icon them published under the CC-BY-SA_V4: http://creativecommons.org/licenses/by-sa/4.0 -->
</svg>
