<?xml version="1.0" encoding="UTF-8" standalone="no"?>
<svg
   xmlns:dc="http://purl.org/dc/elements/1.1/"
   xmlns:cc="http://creativecommons.org/ns#"
   xmlns:rdf="http://www.w3.org/1999/02/22-rdf-syntax-ns#"
   xmlns:svg="http://www.w3.org/2000/svg"
   xmlns="http://www.w3.org/2000/svg"
   viewBox="0 0 16 16"
   version="1.1"
   id="svg2">
  <defs
     id="defs4" />
  <g
     style="fill:#fcfcfc"
     id="g16"
     transform="matrix(0.76583,0.64304,-0.64115,0.76741,0,1.0005686)">
    <path
       style="fill:#fcfcfc"
       id="rect18"
       d="m 14.634,-0.514 h 5.36 c 0.554,0 1,0.446 1,1 v 1 c 0,0.554 -0.446,1 -1,1 h -5.36 c -0.554,0 -1,-0.446 -1,-1 v -1 c 0,-0.554 0.446,-1 1,-1 z" />
  </g>
  <path
     style="fill:#fcfcfc"
     id="path22"
     d="m 6.5,1.0005686 c -3.58985,0 -6.5,2.91015 -6.5,6.5 0,3.5898504 2.91015,6.5000004 6.5,6.5000004 3.58985,0 6.5,-2.91015 6.5,-6.5000004 0,-3.58985 -2.91015,-6.5 -6.5,-6.5 z m 0,3 c 1.933,0 3.5,1.567 3.5,3.5 0,1.933 -1.567,3.5000004 -3.5,3.5000004 -1.933,0 -3.5,-1.5670004 -3.5,-3.5000004 0,-1.933 1.567,-3.5 3.5,-3.5 z" />
  <g
     style="fill:none"
     id="g24" />
  <metadata
     id="metadata9999">
    <rdf:RDF>
      <cc:Work>
        <dc:format>image/svg+xml</dc:format>
        <dc:type
           rdf:resource="http://purl.org/dc/dcmitype/StillImage" />
        <dc:title />
        <cc:license
           rdf:resource="http://creativecommons.org/licenses/by-sa/4.0/" />
        <dc:creator>
          <cc:Agent>
            <dc:title>Sixsixfive (sixsixfive.deviantart.com)</dc:title>
          </cc:Agent>
        </dc:creator>
        <dc:publisher>
          <cc:Agent>
            <dc:title>Sixsixfive (sixsixfive.deviantart.com)</dc:title>
          </cc:Agent>
        </dc:publisher>
        <dc:source>https://github.com/sixsixfive</dc:source>
        <dc:subject>
          <rdf:Bag>
            <rdf:li>ivy</rdf:li>
          </rdf:Bag>
        </dc:subject>
        <dc:contributor>
          <cc:Agent>
            <dc:title>ssf</dc:title>
          </cc:Agent>
        </dc:contributor>
        <dc:rights>
          <cc:Agent>
            <dc:title>Sixsixfive (sixisixfive.deviantart.com)</dc:title>
          </cc:Agent>
        </dc:rights>
        <dc:description>A simple icon theme published under CC-BY-SA_V4(http://creativecommons.org/licenses/by-sa/4.0)</dc:description>
        <dc:identifier>SSF</dc:identifier>
      </cc:Work>
      <cc:License
         rdf:about="http://creativecommons.org/licenses/by-sa/4.0/">
        <cc:permits
           rdf:resource="http://creativecommons.org/ns#Reproduction" />
        <cc:permits
           rdf:resource="http://creativecommons.org/ns#Distribution" />
        <cc:requires
           rdf:resource="http://creativecommons.org/ns#Notice" />
        <cc:requires
           rdf:resource="http://creativecommons.org/ns#Attribution" />
        <cc:permits
           rdf:resource="http://creativecommons.org/ns#DerivativeWorks" />
        <cc:requires
           rdf:resource="http://creativecommons.org/ns#ShareAlike" />
      </cc:License>
    </rdf:RDF>
  </metadata>
  <!--Part of the Ivy icon them published under the CC-BY-SA_V4: http://creativecommons.org/licenses/by-sa/4.0 -->
</svg>
