<?xml version="1.0" encoding="UTF-8" standalone="no"?>
<svg
   xmlns:dc="http://purl.org/dc/elements/1.1/"
   xmlns:cc="http://creativecommons.org/ns#"
   xmlns:rdf="http://www.w3.org/1999/02/22-rdf-syntax-ns#"
   xmlns:svg="http://www.w3.org/2000/svg"
   xmlns="http://www.w3.org/2000/svg"
   height="17.066668"
   width="17.066668"
   id="svg2"
   version="1.1"
   viewBox="0 0 16 16">
  <path
     style="opacity:1;fill:#fcfcfc;fill-opacity:1;stroke:none;stroke-width:0.93557012;stroke-linecap:round;stroke-linejoin:miter;stroke-miterlimit:4;stroke-dasharray:none;stroke-opacity:0.97777776;paint-order:markers stroke fill"
     d="M 2.9960938 0.06640625 C 2.9961329 0.067718807 2.9960578 0.068999115 2.9960938 0.0703125 L 14 0.0703125 L 14 0.06640625 L 2.9960938 0.06640625 z M 10.5 2.0683594 A 3.5000536 3.5000536 0 0 0 7 5.5703125 A 3.5000536 3.5000536 0 0 0 7.7714844 7.7578125 L 7.328125 9.0878906 A 3.0008361 3.0008361 0 0 0 7 9.0683594 A 3.0008361 3.0008361 0 0 0 5.1191406 9.734375 L 0 6.5546875 L 0 8.6816406 L 4.0898438 11.351562 A 3.0008361 3.0008361 0 0 0 4 12.070312 A 3.0008361 3.0008361 0 0 0 7 15.072266 A 3.0008361 3.0008361 0 0 0 10 12.070312 A 3.0008361 3.0008361 0 0 0 9.5605469 10.509766 L 11.044922 9.0234375 A 3.5000536 3.5000536 0 0 0 14 5.5703125 A 3.5000536 3.5000536 0 0 0 10.5 2.0683594 z M 10.5 3.0683594 A 2.5000383 2.5000383 0 0 1 13 5.5703125 A 2.5000383 2.5000383 0 0 1 10.5 8.0703125 A 2.5000383 2.5000383 0 0 1 8 5.5703125 A 2.5000383 2.5000383 0 0 1 10.5 3.0683594 z M 10.5 4.0703125 A 1.500023 1.500023 0 0 0 9 5.5703125 A 1.500023 1.500023 0 0 0 10.5 7.0703125 A 1.500023 1.500023 0 0 0 12 5.5703125 A 1.500023 1.500023 0 0 0 10.5 4.0703125 z M 7 10.068359 A 2.0000306 2.0000306 0 0 1 9 12.070312 A 2.0000306 2.0000306 0 0 1 7 14.070312 A 2.0000306 2.0000306 0 0 1 5 12.070312 A 2.0000306 2.0000306 0 0 1 5.0058594 11.947266 L 6.3398438 12.818359 A 1.0000153 1.0000153 0 0 0 6.4140625 12.878906 A 1.0000153 1.0000153 0 0 0 6.4179688 12.878906 A 1.0000153 1.0000153 0 0 0 6.4980469 12.933594 A 1.0000153 1.0000153 0 0 0 6.5859375 12.978516 A 1.0000153 1.0000153 0 0 0 6.5898438 12.982422 A 1.0000153 1.0000153 0 0 0 6.6582031 13.007812 A 1.0000153 1.0000153 0 0 0 6.6933594 13.021484 A 1.0000153 1.0000153 0 0 0 6.7304688 13.033203 A 1.0000153 1.0000153 0 0 0 6.8007812 13.050781 A 1.0000153 1.0000153 0 0 0 6.8964844 13.064453 A 1.0000153 1.0000153 0 0 0 6.9121094 13.064453 A 1.0000153 1.0000153 0 0 0 7 13.070312 A 1.0000153 1.0000153 0 0 0 7.0976562 13.064453 A 1.0000153 1.0000153 0 0 0 7.1132812 13.0625 A 1.0000153 1.0000153 0 0 0 7.1894531 13.052734 A 1.0000153 1.0000153 0 0 0 7.2363281 13.041016 A 1.0000153 1.0000153 0 0 0 7.2753906 13.03125 A 1.0000153 1.0000153 0 0 0 7.3398438 13.009766 A 1.0000153 1.0000153 0 0 0 7.3632812 13.001953 A 1.0000153 1.0000153 0 0 0 7.3730469 12.996094 A 1.0000153 1.0000153 0 0 0 7.4238281 12.974609 A 1.0000153 1.0000153 0 0 0 7.453125 12.962891 A 1.0000153 1.0000153 0 0 0 7.4804688 12.947266 A 1.0000153 1.0000153 0 0 0 7.5410156 12.910156 A 1.0000153 1.0000153 0 0 1 7.5429688 12.908203 A 1.0000153 1.0000153 0 0 0 7.5957031 12.873047 A 1.0000153 1.0000153 0 0 0 7.6367188 12.839844 A 1.0000153 1.0000153 0 0 0 7.6445312 12.833984 A 1.0000153 1.0000153 0 0 0 7.6953125 12.789062 A 1.0000153 1.0000153 0 0 0 7.71875 12.765625 A 1.0000153 1.0000153 0 0 0 7.7636719 12.714844 A 1.0000153 1.0000153 0 0 0 7.7695312 12.707031 A 1.0000153 1.0000153 0 0 0 7.8027344 12.666016 A 1.0000153 1.0000153 0 0 0 7.8378906 12.613281 A 1.0000153 1.0000153 0 0 1 7.8398438 12.611328 A 1.0000153 1.0000153 0 0 0 7.8769531 12.550781 A 1.0000153 1.0000153 0 0 0 7.8925781 12.523438 A 1.0000153 1.0000153 0 0 0 7.9042969 12.494141 A 1.0000153 1.0000153 0 0 0 7.9257812 12.443359 A 1.0000153 1.0000153 0 0 0 7.9316406 12.433594 A 1.0000153 1.0000153 0 0 0 7.9394531 12.408203 A 1.0000153 1.0000153 0 0 0 7.9609375 12.345703 A 1.0000153 1.0000153 0 0 0 7.9628906 12.337891 A 1.0000153 1.0000153 0 0 0 7.9804688 12.267578 A 1.0000153 1.0000153 0 0 0 7.9824219 12.259766 A 1.0000153 1.0000153 0 0 0 7.9921875 12.183594 A 1.0000153 1.0000153 0 0 0 7.9941406 12.171875 A 1.0000153 1.0000153 0 0 0 7.9941406 12.167969 A 1.0000153 1.0000153 0 0 0 8 12.070312 A 1.0000153 1.0000153 0 0 0 7.9941406 11.970703 A 1.0000153 1.0000153 0 0 1 7.9941406 11.96875 A 1.0000153 1.0000153 0 0 0 7.9824219 11.890625 A 1.0000153 1.0000153 0 0 0 7.9804688 11.873047 A 1.0000153 1.0000153 0 0 0 7.9707031 11.832031 A 1.0000153 1.0000153 0 0 0 7.9648438 11.816406 A 1.0000153 1.0000153 0 0 0 7.9492188 11.753906 A 1.0000153 1.0000153 0 0 0 7.9433594 11.736328 A 1.0000153 1.0000153 0 0 0 7.9335938 11.714844 A 1.0000153 1.0000153 0 0 0 7.9082031 11.652344 A 1.0000153 1.0000153 0 0 0 7.9042969 11.644531 A 1.0000153 1.0000153 0 0 0 7.8984375 11.630859 A 1.0000153 1.0000153 0 0 0 7.8671875 11.574219 A 1.0000153 1.0000153 0 0 0 7.8242188 11.505859 A 1.0000153 1.0000153 0 0 0 7.7753906 11.439453 A 1.0000153 1.0000153 0 0 0 7.7636719 11.425781 A 1.0000153 1.0000153 0 0 0 7.7382812 11.396484 A 1.0000153 1.0000153 0 0 0 7.7226562 11.380859 A 1.0000153 1.0000153 0 0 0 7.6660156 11.326172 A 1.0000153 1.0000153 0 0 0 7.6035156 11.275391 A 1.0000153 1.0000153 0 0 0 7.5527344 11.238281 A 1.0000153 1.0000153 0 0 0 7.5410156 11.230469 A 1.0000153 1.0000153 0 0 0 7.5292969 11.224609 A 1.0000153 1.0000153 0 0 0 7.4785156 11.193359 A 1.0000153 1.0000153 0 0 0 7.4179688 11.162109 L 6.0507812 10.3125 A 2.0000306 2.0000306 0 0 1 7 10.068359 z M 3 16.064453 L 3 16.066406 L 14 16.066406 L 14 16.064453 L 3 16.064453 z "
     transform="scale(0.93749995)"
     id="rect17" />
  <defs
     id="defs4" />
  <metadata
     id="metadata9999">
    <rdf:RDF>
      <cc:Work>
        <dc:format>image/svg+xml</dc:format>
        <dc:type
           rdf:resource="http://purl.org/dc/dcmitype/StillImage" />
        <dc:title />
        <cc:license
           rdf:resource="http://creativecommons.org/licenses/by-sa/4.0/" />
        <dc:creator>
          <cc:Agent>
            <dc:title>Sixsixfive (sixsixfive.deviantart.com)</dc:title>
          </cc:Agent>
        </dc:creator>
        <dc:publisher>
          <cc:Agent>
            <dc:title>Sixsixfive (sixsixfive.deviantart.com)</dc:title>
          </cc:Agent>
        </dc:publisher>
        <dc:source>https://github.com/sixsixfive</dc:source>
        <dc:subject>
          <rdf:Bag>
            <rdf:li>ivy</rdf:li>
          </rdf:Bag>
        </dc:subject>
        <dc:contributor>
          <cc:Agent>
            <dc:title>ssf</dc:title>
          </cc:Agent>
        </dc:contributor>
        <dc:rights>
          <cc:Agent>
            <dc:title>Sixsixfive (sixisixfive.deviantart.com)</dc:title>
          </cc:Agent>
        </dc:rights>
        <dc:description>A simple icon theme published under CC-BY-SA_V4(http://creativecommons.org/licenses/by-sa/4.0)</dc:description>
        <dc:identifier>SSF</dc:identifier>
      </cc:Work>
      <cc:License
         rdf:about="http://creativecommons.org/licenses/by-sa/4.0/">
        <cc:permits
           rdf:resource="http://creativecommons.org/ns#Reproduction" />
        <cc:permits
           rdf:resource="http://creativecommons.org/ns#Distribution" />
        <cc:requires
           rdf:resource="http://creativecommons.org/ns#Notice" />
        <cc:requires
           rdf:resource="http://creativecommons.org/ns#Attribution" />
        <cc:permits
           rdf:resource="http://creativecommons.org/ns#DerivativeWorks" />
        <cc:requires
           rdf:resource="http://creativecommons.org/ns#ShareAlike" />
      </cc:License>
    </rdf:RDF>
  </metadata>
  <!--Part of the Ivy icon them published under the CC-BY-SA_V4: http://creativecommons.org/licenses/by-sa/4.0 -->
  <g
     style="fill:none"
     id="g18" />
</svg>
