<?xml version="1.0" encoding="UTF-8" standalone="no"?>
<svg
   xmlns:dc="http://purl.org/dc/elements/1.1/"
   xmlns:cc="http://creativecommons.org/ns#"
   xmlns:rdf="http://www.w3.org/1999/02/22-rdf-syntax-ns#"
   xmlns:svg="http://www.w3.org/2000/svg"
   xmlns="http://www.w3.org/2000/svg"
   version="1.1"
   id="svg4235"
   viewBox="0 0 15.999999 15.999999"
   height="16"
   width="16"
   style="shape-rendering:crispEdges">
  <metadata
     id="metadata11">
    <rdf:RDF>
      <cc:Work
         rdf:about="">
        <dc:format>image/svg+xml</dc:format>
        <dc:type
           rdf:resource="http://purl.org/dc/dcmitype/StillImage" />
        <dc:title />
      </cc:Work>
    </rdf:RDF>
  </metadata>
  <defs
     id="defs4237" />
  <path
     style="opacity:1;fill:#fcfcfc;fill-opacity:1;stroke-width:0.88888884"
     d="M 8.0078125 3.5546875 A 0.66673331 0.66673331 0 0 0 7.5273438 3.75 L 7.3144531 3.9628906 A 0.66673331 0.66673331 0 0 0 7.296875 3.9804688 L 3.9726562 7.3066406 L 3.7421875 7.5351562 A 0.66673331 0.66673331 0 0 0 3.546875 8.015625 A 0.66673331 0.66673331 0 0 0 3.7421875 8.4804688 L 7.296875 12.035156 A 0.6672105 0.6672105 0 0 0 7.3632812 12.091797 L 7.5273438 12.255859 A 0.66673331 0.66673331 0 0 0 8.0078125 12.451172 A 0.66673331 0.66673331 0 0 0 8.4726562 12.255859 L 8.6777344 12.048828 A 0.6672105 0.6672105 0 0 0 8.6914062 12.035156 L 12.027344 8.7011719 A 0.6672105 0.6672105 0 0 0 12.029297 8.6992188 L 12.248047 8.4804688 A 0.66673331 0.66673331 0 0 0 12.443359 8.015625 A 0.66673331 0.66673331 0 0 0 12.248047 7.5351562 L 12.083984 7.3710938 A 0.6672105 0.6672105 0 0 0 12.027344 7.3066406 L 8.4726562 3.75 A 0.66673331 0.66673331 0 0 0 8.0078125 3.5546875 z M 7.9960938 5.171875 L 10.832031 8.0078125 L 8 10.839844 L 5.1621094 8.0039062 L 7.9960938 5.171875 z "
     id="path4284" />
  <rect
     y="-1.8e-07"
     x="2.2e-07"
     height="15.999999"
     width="15.999999"
     id="rect4286"
     style="opacity:0;fill:#e270a2;fill-opacity:1;stroke-width:1.09090912;stroke-linecap:round;stroke-miterlimit:4;stroke-dasharray:none" />
</svg>
