<?xml version="1.0" encoding="UTF-8" standalone="no"?>
<svg
   xmlns:dc="http://purl.org/dc/elements/1.1/"
   xmlns:cc="http://creativecommons.org/ns#"
   xmlns:rdf="http://www.w3.org/1999/02/22-rdf-syntax-ns#"
   xmlns:svg="http://www.w3.org/2000/svg"
   xmlns="http://www.w3.org/2000/svg"
   version="1.1"
   id="svg4235"
   viewBox="0 0 15.999999 15.999999"
   height="16"
   width="16">
  <metadata
     id="metadata10">
    <rdf:RDF>
      <cc:Work
         rdf:about="">
        <dc:format>image/svg+xml</dc:format>
        <dc:type
           rdf:resource="http://purl.org/dc/dcmitype/StillImage" />
        <dc:title />
      </cc:Work>
    </rdf:RDF>
  </metadata>
  <defs
     id="defs4237" />
  <path
     style="opacity:1;fill:#fcfcfc;fill-opacity:1;stroke-width:0.8888886"
     d="M 8,0 A 8,8 0 0 0 0,8 8,8 0 0 0 8,16 8,8 0 0 0 16,8 8,8 0 0 0 8,0 Z M 4.437502,3.772568 A 0.6667334,0.6667334 0 0 1 4.916666,3.973956 L 8,7.05729 11.08333,3.973956 a 0.6667334,0.6667334 0 0 1 0.45835,-0.201388 0.6667334,0.6667334 0 0 1 0.48609,1.144098 l -3.08333,3.085064 3.08333,3.08333 a 0.66721045,0.66721045 0 0 1 -0.94444,0.94271 L 8,8.94444 4.916666,12.02777 A 0.66721045,0.66721045 0 0 1 3.972222,11.08506 L 7.055556,8.00173 3.972222,4.916666 a 0.6667334,0.6667334 0 0 1 0.46528,-1.144098 z"
     id="path4203" />
</svg>
